/* XPM */
static char *_215aeff68be430bddf770d7c434018egEY7Y8WEXuncpuTJ[] = {
/* columns rows colors chars-per-pixel */
"64 64 139 2 ",
"   c #1B090B",
".  c #0D0412",
"X  c #0D0A15",
"o  c #120E15",
"O  c #0F1018",
"+  c #151216",
"@  c #1A1515",
"#  c #1D1915",
"$  c #161618",
"%  c #181718",
"&  c #161919",
"*  c #191A19",
"=  c #200F0C",
"-  c #330F01",
";  c #2C1707",
":  c #291509",
">  c #311503",
",  c #351906",
"<  c #1D221C",
"1  c #2B2015",
"2  c #2D2718",
"3  c #242E1F",
"4  c #2F2918",
"5  c #322514",
"6  c #233523",
"7  c #283621",
"8  c #2A3B23",
"9  c #471101",
"0  c #471C06",
"q  c #4E2509",
"w  c #5C2D0C",
"e  c #4D3B14",
"r  c #2E4125",
"t  c #2F4728",
"y  c #33532B",
"u  c #38532A",
"i  c #3D5E2F",
"p  c #3F6230",
"a  c #6D4716",
"s  c #654C18",
"d  c #745915",
"f  c #4B4726",
"g  c #465220",
"h  c #575329",
"j  c #585429",
"k  c #446C34",
"l  c #477034",
"z  c #4A7536",
"x  c #737634",
"c  c #7A7D36",
"v  c #8A5F0C",
"b  c #805E1F",
"n  c #9F6E0C",
"m  c #866112",
"M  c #896513",
"N  c #8D6C15",
"B  c #926F15",
"V  c #937015",
"C  c #9D7413",
"Z  c #A67A12",
"A  c #51853B",
"S  c #548B3D",
"D  c #5B9540",
"F  c #5C9941",
"G  c #62A345",
"H  c #67AF49",
"J  c #68AF49",
"K  c #6BB54B",
"L  c #6EBA4C",
"P  c #70C04E",
"I  c #76C951",
"U  c #78CE52",
"Y  c #77D054",
"T  c #7CD656",
"R  c #7ED957",
"E  c #7FDC58",
"W  c #B7800B",
"Q  c #B28514",
"!  c #B68913",
"~  c #91933C",
"^  c #9C9C3D",
"/  c #AB9A2E",
"(  c #B8AB3D",
")  c #D59A0E",
"_  c #DA9D0F",
"`  c #CC9814",
"'  c #D69F13",
"]  c #DA9E10",
"[  c #DEA10F",
"{  c #D7A013",
"}  c #DAA113",
"|  c #DCAA1A",
" . c #E3A40F",
".. c #E2A712",
"X. c #E4A912",
"o. c #E9AD13",
"O. c #DEBD2B",
"+. c #E0BD2C",
"@. c #E0C22F",
"#. c #E1C431",
"$. c #E3CD39",
"%. c #E4D13D",
"&. c #E9D33A",
"*. c #9CA040",
"=. c #A1A441",
"-. c #AFB245",
";. c #B2B546",
":. c #B3B748",
">. c #80DD58",
",. c #83E25A",
"<. c #87EB5C",
"1. c #E4D440",
"2. c #E5D843",
"3. c #E6DE4A",
"4. c #E7E14B",
"5. c #E8ED4E",
"6. c #E7EB56",
"7. c #E9ED56",
"8. c #EAEE59",
"9. c #ECF057",
"0. c #EBF25A",
"q. c #F1F759",
"w. c #F4F95A",
"e. c #EBEF67",
"r. c #ECEF6F",
"t. c #ECF070",
"y. c #EFF284",
"u. c #F2F499",
"i. c #F3F5A3",
"p. c #F3F5AA",
"a. c #F4F6AF",
"s. c #F5F7B7",
"d. c #F7F9C6",
"f. c #F7F9C9",
"g. c #F9FAD4",
"h. c #FAFBDB",
"j. c #FDFDF2",
"k. c #FEFEFC",
"l. c #FEFEFE",
/* pixels */
"R R R R >.R R R R R R R R R R R R R R >.T R R >.T T >.T R R R R R R R R R R R R R R R R R R R R R R R R R R R R R R R R R R R R ",
"R R R R R R R R R R R R R R R R R R R R R R R R T >.R R R R R >.R R R R R R R R R R R R R R R R R R R R R R R R R R R R R R R R ",
"R R R R R R R R R R R R R R R R R R R R R R R R R R R R R R R R R R R R R R R R R R R R R R R R R R R R R R R R R R R R R R R R ",
"R R R R R R R R R R R R R R R R R R R R R R R R R R R R R R R R R R R R R R R R R E R R R R E R R R R R R R R E R R R R R R R R ",
"R R R R R R R R R R R R R R R R R R R R R R R R >.R R R R R R R R R R R R R R R R R R R R R R R R R R R R R R R R R R R R R R R ",
"R R R R R R R R R R R R R R R R R R R R R R R R R R R R R R R R >.R R R R R R R R R R R R R R R R R R R R R R R R R R R R R R R ",
"R R R R R R R R R R R R R R >.R R R R R R R R R R R R R R R R R T R R R R R R R R R R R R R R R R R R R R R R R R R R R R R R R ",
"R R R R R R R R R R R R R R R R R R R R R R >.R R R R R R R R R R R R R R T >.R R R R E R R R R R R R R R R R R R R E R R R R R ",
"R R R R R R R R R R R R R R R >.R R R R R R R R R R R R R T E T R T R R R R R R R R R R R R R R R R R R R R R R R R R R R R R R ",
"R R R R R R R R R R R R R R R R R R R R R R R R R R R R R E T E T >.R T R T R R R R R R R R R R R R R R R R R R R R R R R R R R ",
"R R R R R R R R R R R R R R R R R R R R R R R R R E R R R R E T R R R T T R R R R R R R R R R R R R R R R R R R R R R R R R R R ",
"R R R R R R R R R R R R R R R R R R R R R R R R R R R R T E T T R R R >.,.E T R R R R R R R R R R R R R R R R R R R R R R R R R ",
"R R R R R R R R R R R R R R R R R R R R R R R R R R R R R T R E T ,.P p i H ,.T R R R R R R R R R R R R R R R >.R R R R R R R R ",
">.R R R R R R R R R R R R R R R R R R R R R R R R R R R R R T T >.L z + . D ,.T R R R R R R R R R R R R R R R R R R R R R R R R ",
"R R R R R R R R R R R R R R R R R R R R R R R R R R R R R R T T >.i o * % F ,.T R R R R R R R R R R R R R R R R R R R E R R R R ",
"R R R R R R >.R R R R R R R R R R >.R R R R R R R R R R R T R T u < % % G Y R R R R R R R R R R R >.R R R R R R R R R R R R R R ",
"R R R R R R R R R R R R R R R R R R R R R R R R R R R R R R R T 8 . 7 F T E T R R R R R R R R R R R R R R R R R R R R R R R R R ",
"R R R R R R R R R R R R R R R R R R R R >.R R R R R R R R T R R 8 6 A ,.R T R R R R R R R R R R R R R R R R R R R R R R R R R R ",
"R R R R >.R R R R R R R R R R R R R R R R R R R R R R R R T R T 6 S <.Y T R R R R R R R R R R R R R R R R R R R R R R R R R >.R ",
"R R R R T R R R R R >.R R R R R R R R R R R R T R R R R T T T R 7 A <.T T T R T R R R R R R R R R R R R R R R R R R R R R R R R ",
"R R R R R R R R R R R R R R R R R R R R R R R T T T R <.,.,.<.Y 7 3 z T <.R T R R R R R R R R R R R R R R R R R R R R R R R R R ",
"R R R R R R R R R R R R R R R R R R R T R T R >.>.,.Y S D D F u @ @ o k D P ,.E Y R R R R T R R R R R R R R R R R R R R R R R R ",
"R R R R >.R R R R R R R R R R R R R T R R R R L L L i o + + o = > ; # + o r K L >.R R R R R R R R R R R R R R R R R R R R R R R ",
"T >.R R T R R R R R R R R R R >.R R R T R ,.D % & & + $ $ % @ : > > : % % + % < G >.R R R R T R R R R R R R R >.R R R R R R R R ",
"R R R R R R R R R R R R T R R T T R T T ,.F & % ~ :.;.;.-.:.^ q 0 0 s / C Q m $ & t z >.R R R R T >.T >.>.T T >.R R R R R R R R ",
"R R R R R R R R R R R R >.R R T R R T ,.D % * *.w.w.q.w.w.q.w.( w 9 d q.#.X...N s 1 X z >.R R R T T T T T >.T T R R R R R R R R ",
">.R R R R R R R >.R R R R T T >.R T ,.D % * =.w.6.6.6.6.6.6.6.w.( a O.6.6.O.' | o.Q 4 o l >.R R >.T T >.T >.T >.R R R R R R R R ",
"T R R R R R R R R R R R R T R T T ,.F & % ^ w.6.8.8.8.6.8.8.7.7.9.6.e.6.7.7.O._ ' o.Q 4 X z >.R T T T T >.T >.T >.R R R R R R R ",
"T >.R R R >.R R R R R R R R R T ,.D % * =.q.6.7.5.5.5.5.5.5.7.7.7.7.7.7.6.7.7.+._ ]  .Q 4 o k >.>.T T >.T T >.T T T >.T R T T >.",
">.T R R R R R R R R R R R T R >.D $ % *.w.8.7.5.u.a.p.p.s.r.5.7.7.7.7.7.7.7.7.7.+._ ] X.! 2 X z >.T T T >.T T >.>.>.T T T >.>.T ",
"T T >.R R R R R R R R R R R T >.u * =.q.8.6.6.i.l.l.l.l.l.j.y.7.8.7.8.7.7.7.7.8.6.+.] } ..Z 2 6 T T T >.T >.>.T T >.T >.>.T T >.",
"T >.T R R R R R R R R R R R T ,.y j w.8.8.6.i.l.l.l.k.k.l.l.h.7.8.7.7.7.7.7.7.7.7.e.+.[ | o.b 6 >.>.T T T >.T T >.T >.T T >.T T ",
">.I >.>.>.>.I >.>.Y >.U >.>.>.>.y h 9.7.7.u.l.l.l.l.l.l.l.l.f.7.7.7.8.7.7.7.7.7.6.0.1.] { o.m 6 R R R R R R R R R R R R R R >.R ",
">.>.>.I I >.>.>.>.>.>.>.Y >.>.>.y h w.5.i.l.l.l.l.l.l.l.l.l.h.7.7.7.7.7.8.7.7.7.7.0.%.] ' o.m 6 R R R R R R R R >.R R R R R R R ",
">.>.>.>.>.>.>.>.>.>.Y >.>.>.>.>.y h q.6.g.l.k.l.l.l.l.l.l.l.d.7.7.7.7.8.7.7.7.7.6.0.%.] { o.m 6 R R R R R R R R T T >.R R R R R ",
">.I >.I >.>.Y >.>.I >.>.>.U >.,.y h q.7.f.l.k.l.l.l.l.l.l.f.8.7.8.7.7.9.8.8.9.7.7.0.%.] { o.m 6 T R R R R T >.R T >.T R R R R R ",
">.I >.I >.>.>.>.>.I >.>.U I >.>.y h q.6.r.h.l.k.k.l.k.l.d.8.7.7.7.7.7.9.7.7.8.7.7.0.%.] } o.d 6 R R T R R R R R R R R R R R R R ",
">.>.>.>.I >.>.I >.>.>.Y >.>.>.>.y h q.6.7.e.h.l.l.l.l.f.8.7.7.7.7.7.8.7.7.9.8.7.6.0.1.] } o.M 6 R R T >.R R R R R R R R R R R R ",
">.Y >.Y >.>.>.>.>.>.>.>.>.U >.,.y h q.7.7.5.r.d.d.d.s.8.7.7.7.7.8.7.7.8.9.7.7.7.7.0.%.} } o.m 6 T R T T R R R R R R R R R R R R ",
">.>.>.>.>.Y >.I >.>.I >.>.>.>.>.y j q.6.7.7.7.7.5.7.7.7.8.7.9.7.7.9.7.7.8.7.7.7.7.0.%.{ } o.m 6 >.T T >.R R R R R R R R R R R R ",
">.Y >.>.>.>.>.>.>.>.Y >.U >.>.>.y h q.6.7.7.7.9.8.7.8.8.7.7.8.7.8.7.9.8.7.7.7.7.7.7.#.] } o.m 6 >.R T R R R R R R R R R R R R R ",
">.>.I >.>.I I >.>.Y >.>.>.Y >.,.y h q.6.7.7.7.7.9.7.7.7.7.7.7.9.7.7.7.7.7.7.7.7.9.#.} } ' o.m 6 >.R R T R R R R R >.R R R R R R ",
">.>.>.>.>.>.>.>.T >.>.T >.I >.,.y j q.6.7.7.7.7.7.7.8.7.7.7.7.7.7.7.7.7.7.7.7.9.#._ } } ' o.M 6 T T T >.R R R R R R R R R R R R ",
"I >.I >.>.>.Y >.>.T T >.>.>.U >.y f 0.0.6.7.7.7.8.7.7.7.9.8.7.8.8.8.7.7.7.8.7.@.} } } } ' o.d 6 T >.T T >.R R T R R R R R R R R ",
">.>.>.>.I >.Y >.T >.T T >.>.>.>.g . D 9.7.6.9.6.6.7.8.7.7.6.7.8.7.7.7.7.7.0.#._ ..} } } X.V % 8 T >.T T R R R >.R R R R R R R R ",
"Y >.I >.>.>.>.>.T >.>.T U U >.U K 4   x 0.9.6.9.8.8.7.8.8.q.8.8.0.0.0.0.7.#.} } } } ] X.B % < S >.T T >.R R R R R R R R R R R R ",
">.>.I >.>.I I >.>.T T >.>.>.>.>.,.L 3 X S 0.9.7.8.0.0.3.$.$.&.&.&.$.$.$.@.] } } } ] X.B + * S ,.>.T T >.R R R R R R R R R R R R ",
"Y >.>.>.>.>.>.>.T T >.>.>.U >.>.>.>.L 4   x 4.4.3.3.2..._ ] [ Z W ) [ _ ] } } } } X.V % * F <.R T T T T R R R T >.R R T >.R R R ",
">.>.I >.>.I >.>.I >.I >.>.I >.>.>.U >.J 3 X d | ..} } } ' | v , - a ' } } } } } | b % * D R T R T T >.>.T >.T T >.T >.U >.>.>.>.",
">.>.>.>.>.>.>.>.>.>.>.>.>.>.>.I >.U >.>.K 6 O a ] } ] ] X.n > - - - b | } } } | C * * F E >.R R T T T T >.T T >.Y >.>.>.>.Y >.U ",
">.I I >.I >.I >.I >.>.>.>.>.>.>.>.>.>.U >.L 3 X d X.X.X.` e   f j = 5 ! o...o.B % < D E R R R T T >.>.T >.T T >.>.Y >.U I >.>.>.",
">.>.>.>.>.>.>.>.>.>.I >.Y >.I >.U >.>.>.>.>.K 6 O d Z Z e X y Y >.k o 5 Z Z b % < F R >.>.R T R >.T T >.T >.T T >.>.>.>.>.>.>.U ",
">.>.>.>.I >.>.>.>.>.>.>.>.>.I >.>.>.I U >.Y >.L 8 & < < $ y I >.>.>.z % * < * * D >.>.>.R R R R T T >.T >.T T >.>.Y >.I >.>.>.>.",
">.I >.>.>.>.Y >.>.>.I >.>.>.>.>.>.>.>.>.>.>.>.>.T I I I I R >.T >.T >.I I P I >.>.>.>.>.R R R R T >.T T >.T T >.>.>.>.>.>.I I >.",
">.>.>.I >.>.>.>.I >.I >.Y >.I >.>.Y >.>.T T >.Y R >.>.>.>.R T R >.T T >.>.>.>.>.>.I >.I R R R R >.T T >.T T >.T >.>.>.>.>.>.>.>.",
">.I >.>.I >.Y >.>.>.>.>.>.>.>.>.>.>.Y >.Y >.T T R T T R R T >.T T R R T I >.>.I >.>.>.>.R R R R T >.>.T >.T T >.>.I Y >.>.I >.>.",
">.>.>.>.I >.I >.Y >.>.>.>.>.>.>.R R R R R R T >.R R R R R R R R R R R R R R R R R R R R R R R R >.>.>.>.I >.>.I >.>.>.>.Y >.>.I ",
">.Y >.>.>.>.>.>.>.>.I >.>.I I >.R R R R R R >.T >.R R R R R R R R R R R R R R R R R R R R R R R >.I >.>.>.>.>.>.>.I >.I >.>.>.>.",
"Y >.>.I >.>.>.>.I >.>.>.>.>.>.>.>.T R T R T >.T T R R R >.T R R R R R R >.R R R R R R R R R R R I >.>.I >.>.>.>.>.I >.>.I >.>.I ",
">.>.>.>.I >.I >.>.>.I >.Y >.Y >.R R R >.>.T T >.R R R R R R R R R R R R R R R R R R R R R R R R >.>.>.>.>.I >.I >.>.>.>.>.>.>.>.",
"I >.>.I >.>.I >.Y >.I >.>.I >.>.T >.T T >.T T >.R R R R R R >.R R R R R R R R R R R R R R R R R >.>.>.>.>.I >.>.I >.>.I >.I >.>.",
">.>.>.>.>.I >.>.>.>.>.>.>.>.>.>.>.T T >.T >.T T R R R R R R T R R R R R R R R R R R R R R R R R I >.T I >.>.>.>.>.>.>.>.>.>.Y >.",
"I >.>.I >.>.>.>.>.>.>.>.>.I I >.>.T T >.T >.T >.>.T R R R R R R R R R R R R R R R R R R R R R R R R R R >.Y >.>.>.>.>.>.>.>.>.>.",
">.>.>.>.>.>.I >.I >.I >.>.>.>.>.T >.T T >.T T >.T T >.R R R R R R R R R R R R R R R R R R R R R R R R R >.>.I >.>.Y >.I >.I >.>."
};
