/* XPM */
static char *_ec4bfef7ac64357aa30a04a3e5d4ce2Z4KRbGWPpsOyEV1G[] = {
/* columns rows colors chars-per-pixel */
"64 64 211 2 ",
"   c #191D1F",
".  c #1B1E21",
"X  c #251A27",
"o  c #271D2A",
"O  c #291D2B",
"+  c #301F2D",
"@  c #1C2224",
"#  c #1E2229",
"$  c #262429",
"%  c #24242E",
"&  c #2B222E",
"*  c #32212E",
"=  c #33292D",
"-  c #2C2232",
";  c #242D37",
":  c #252F39",
">  c #362532",
",  c #3A2634",
"<  c #352A35",
"1  c #3C2935",
"2  c #372D3D",
"3  c #3C2B38",
"4  c #26333D",
"5  c #29333E",
"6  c #27383F",
"7  c #29393F",
"8  c #3C323A",
"9  c #422A37",
"0  c #442D39",
"q  c #4B2E3B",
"w  c #5B2C3A",
"e  c #4D323D",
"r  c #453839",
"t  c #53323E",
"y  c #543D3E",
"u  c #5B393E",
"i  c #2B433E",
"p  c #50443D",
"a  c #273640",
"s  c #293542",
"d  c #273941",
"f  c #283B41",
"g  c #323B43",
"h  c #3A3F63",
"j  c #4D3640",
"k  c #473B47",
"l  c #4D3A41",
"z  c #553540",
"x  c #5A3541",
"c  c #533A42",
"v  c #5D3B42",
"b  c #623B44",
"n  c #6A3D46",
"m  c #623F48",
"M  c #2C4844",
"N  c #2C4E4C",
"B  c #334241",
"V  c #384C47",
"C  c #2D524F",
"Z  c #2F5D4F",
"A  c #32514F",
"S  c #3B554E",
"D  c #325B4E",
"F  c #2D5551",
"G  c #2E5951",
"H  c #315450",
"J  c #3A5351",
"K  c #315C51",
"L  c #3B5D52",
"P  c #365B58",
"I  c #2F604F",
"U  c #33634E",
"Y  c #366E4C",
"T  c #396C4A",
"R  c #36754E",
"E  c #39764E",
"W  c #37794D",
"Q  c #3A7B4E",
"!  c #346251",
"~  c #3A6252",
"^  c #366158",
"/  c #3A7452",
"(  c #3A4166",
")  c #3C456C",
"_  c #3E4771",
"`  c #3E4872",
"'  c #434B47",
"]  c #574643",
"[  c #5B4342",
"{  c #495D4F",
"}  c #435B52",
"|  c #644543",
" . c #7D444F",
".. c #625044",
"X. c #7E4550",
"o. c #7D4B53",
"O. c #7D5455",
"+. c #426C4B",
"@. c #526C44",
"#. c #44744B",
"$. c #4D764D",
"%. c #427D4E",
"&. c #4A7C4D",
"*. c #54784D",
"=. c #436653",
"-. c #477B52",
";. c #47496E",
":. c #424B75",
">. c #4C4F70",
",. c #4C4C73",
"<. c #4A5378",
"1. c #D31C21",
"2. c #CA2A27",
"3. c #D62B29",
"4. c #D0312B",
"5. c #E62825",
"6. c #E9322B",
"7. c #F0302A",
"8. c #81454F",
"9. c #834651",
"0. c #854A53",
"q. c #8C4B55",
"w. c #8C4C57",
"e. c #924D56",
"r. c #964D58",
"t. c #8C5356",
"y. c #895855",
"u. c #945456",
"i. c #955C56",
"p. c #9A5F57",
"a. c #975359",
"s. c #A55D59",
"d. c #AA5E5B",
"f. c #B45D5B",
"g. c #9A6057",
"h. c #9C6258",
"j. c #A6675D",
"k. c #AD615D",
"l. c #B3635E",
"z. c #B9665D",
"x. c #B8735F",
"c. c #B66560",
"v. c #B96660",
"b. c #BD6A61",
"n. c #BB7461",
"m. c #C6685F",
"M. c #C06D61",
"N. c #C47262",
"B. c #C77664",
"V. c #CB7964",
"C. c #58983F",
"Z. c #6D993F",
"A. c #5CA33F",
"S. c #3E814C",
"D. c #43814E",
"F. c #4A854F",
"G. c #4D894F",
"H. c #53834E",
"J. c #549441",
"K. c #559B42",
"L. c #5A9C41",
"P. c #468151",
"I. c #4C8550",
"U. c #548C50",
"Y. c #5B9051",
"T. c #639942",
"R. c #5BA242",
"E. c #66A842",
"W. c #71AD44",
"Q. c #A4B656",
"!. c #A5B857",
"~. c #ACBA57",
"^. c #ADB559",
"/. c #A4BD58",
"(. c #ADBA59",
"). c #B3B858",
"_. c #B3BC59",
"`. c #D79461",
"'. c #E79965",
"]. c #ED9D6C",
"[. c #F19F6C",
"{. c #F9937C",
"}. c #EFA76D",
"|. c #F5A36D",
" X c #F8A76E",
".X c #FDAC6F",
"XX c #FFAE70",
"oX c #A6C257",
"OX c #A9C256",
"+X c #ADC359",
"@X c #B4C55A",
"#X c #B9C45A",
"$X c #B6C95A",
"%X c #BBCB5A",
"&X c #C1CE5B",
"*X c #C4D15B",
"=X c #CBD55C",
"-X c #5D648C",
";X c #636B94",
":X c #686D96",
">X c #6B739A",
",X c #75769A",
"<X c #9394AE",
"1X c #949AB4",
"2X c #999EBC",
"3X c #9AA1B8",
"4X c #E89B84",
"5X c #E3A384",
"6X c #FDA184",
"7X c #9FA3C0",
"8X c #A2A6C2",
/* pixels */
"Q Q D.W D.*X$XD.S.D.Q Q D.F.%X=X=X%X=X=X%XU.@X=X=X=X%X%XI.W G F F G S.%X=X%XI.I.@X=X=X@XU.%X%XD.S.D.D.Q Q W D.%X$XP.S.D.$X*XD.Q ",
"Q D.+XD.S.+XI.S.$X%XQ D.$X*X%X%X+XU.@X=X=X@XU.@X=X$XU.$X@XD.W G G R I.%X=X=X*X@XY.@X@XU.@X=X%XI.S.$X$XD.R G P.+XI.D.+XF.P.+XD.W ",
"Q D.+XD.W F.W D.*X%XS.S.*X$XU.F.I.Q F.$X=X$XS.P.%X&XG.S.%.W W F F P.$X=X&X%X&X=X$XU.P.D.$X=X=X$XF.$X*XS.G G W %.G Q %X+X%.Q K G ",
"Q Q D.Q D.+XF.P.+XI.R P.+XI.S.$X$XS.W I.+XI.Q W I.%X+XS.G K E K F Q %X$XI.D.I.@X=X%X+XS.P.$X*X@XS.I.+XD.R P.Q G F G D.D.^ R R F ",
"K W Q Q D.$X+XD.D.R G E S.R %.%X*X%.G W %.G E K R D.P.Q E G G F F G Q P.I.+XG.D.*X%XG.W G Q P.%.^ R %.G %./.%.F K G G R R ! G G ",
"j K W E Q D.P.W R G H F G G G P.+XD.Q G G G R F G W Q G G G F F F F G Q $X=XoXG.+XP.R G F G W W W G G G W D.G F K / G G G R E W ",
"e F F G W W R G G H j j F G W D.S.G.@XI.W W G G R D.+XG.R W K F G F G S.%X$XI.S.%.G F F F G G G W E W E K F F F %.+XI.R G K G G ",
"z A F F G G G F C c z j H G I.+XI.+X*X+XQ G H F G ^ $X+X%.W E F F G W Q P.S.W W G F F F K R K F G G G G H F F F %.%X+XD.%.W F F ",
"0.c C F F F F H c 9.c C F / @X$X%.%.D.%.G F F F F F D.%.G F F f F F Q Q G R I W W F H G W P.W G F F G H j j A F E D.D.P./.D.F j ",
"l.x j J H F A c 9.c H F F G %.D.G G R G K Q F F F G R G F F C f C F R Q K K W Q W K F F D.+XG.W G G R H j t j C G R E W %.K H e ",
"l.x q.d.v j e x 9.z C F K F G R F F K F %./.~ a a F F F F F a 4 d F P W / Q Q E G F G Q D.%X@X/ F G R H A t z A G F K G F F j t ",
"w.x q.v.d.z t 9.x j A F R G F G K I.+X=.G %.R f 4 a a a a N 4 s d F F G W W W F F F -.oXP.Q D.G F F F F F j  .c F F F F F A t t ",
"q.q.t w.e.t q.w.z A F K %.W G F / +X*X+XH F K N a 4 a a a a f N d F F C F F F F F F G D.W G F K %.W F G R H z t j A H F C x X.u ",
"v d.b q.0.v f.q.z F F ~ (.D.F F G %.D.D.K F F F a a C F N f F C d N C d C F N a d F F R G F F P /.D.F G E F c 9.t t j A j q.q.t ",
"u k.e.f.e.q.v.w.j F F P (.~ F F G F F G R G f 4 s F H G F F F F d d d a s d a a s F F F F G F G %.G F H H F H 0.x 9.x e t w.9.z ",
"x k.n l.w.v f.w.H F F ~ Q F F G E G F G E E F 4 a F F R W G H R F N d a d C d a d F F F G R G F F F F l q j } k.b 0.q.t q.w.x q ",
"x k.w.l.w.t e.q.S N B ~.%.d F F E E F N f F C a C G F K E F F F H F C f F W G d N F F F W W F F R G F H e c 0.l.q.v d.v q.e.0.t ",
"u 0.b l.q.b k.q.s 4 V (.B 4 a d C C f a a f d a F E W G F G F d F F F F K W E C d a F G / W G R Q W F F F A x e.k.b k.n d.e.0.t ",
"z s.b l.w.q.v.q.: [ !.%.4 4 a 4 f d a C F F F F F G E F F C a 4 a a C R F F F H F a a G W K F K E W K F f C H 0.z.r.c.q.c.q.x t ",
"v 9.x k.q.b l.0.' !.&.B d 6 4 a C C K G R G F R K F F F f a 4 a a 4 a G F a a F W C a F G H C F K R F a 4 f C x d.a.k.b l.e.t q ",
"^...v e.d.b l.h.!.&.V Q.%.6 3 A ~ I.!.K F F F K R F G F 4 s a a a 4 f T f 4 a F E F a F F a a d F F N 3 4 4 4 0 q.r.d.v l.w.t e ",
"U.~._.h.z.[ _.@X&.] ~.G.C 1 < Q +X+XI.F F C d N G G Y f 6 4 4 4 4 f Y 7 4 4 a a F F f N a a C C d F F 1 , 1 : 0 d.u.f.b k.w.y #.",
"~.p &._.@X#.%.=.e v +XL 9 0 S Q &.%.F F C a a a N d 7 R T f 6 6 d Y G 6 4 s 4 4 a a 4 4 a C F F C d F s 1 t 3 0 0.n k.u w.q.v @X",
"&.y l ~ #.c [ ^.v c $.t.d.d.0.0.O.L L a a a 4 s a 4 6 7 7 Y R R C f N a a C f 4 a 4 a 4 s C F F F d C a s  .t 0 k.q.l.b d.q.u #X",
"e x X.T c 8.u._.u 9.q.k.t.| z g #.@X(.B 4 4 6 a N f s 4 4 d F f d a a 4 a F N a a a N a 4 a a a A A 7 E 6 x 8.q d.b l.q.w.q.u %.",
"u 9.u x s.n j.$.[ l.e.c #.Q.g > f %.%.R 6 4 4 s C N a 4 6 a N d C C a a 4 a a a : s s 4 : a a a s 4 i Q.' q 8.t k.b d.b q.u._.%.",
"q.z O O t e.l.b d.t.t 3 D %.T 3 , 4 4 d 6 , 1 6 a a 4 a C 4 4 6 C d s 4 4 4 a N a a 4 % O 4 a a 4 4 6 F.Q.y t 9 s.b q.e.f.h._.p ",
"l.t o X * k.u.d.u.$.3 q 3 6 7 , , 6 4 1 , > 5 4 a 4 a C F d 4 4 6 : : . . 5 a a N a 4 : O o o : 4 s : $ &.Q.p e 0.v s.r.n._.&.t ",
"q.t O O > s.b l.g.Q.r q , 1 N 3 3 N < , $   : @ : a 4 4 a 4 4 4 : @ @ @   . 4 4 6 4 a 4 : O , O O : O O % H._._.y.| z.h._.H.l t ",
"x X.x  .t q.v z.#X&.3  .& 3 J X.j A < X ; @ @   . : @ 4 4 4 @   @   ; : .   . @ : 4 4 4 @ . , q , O O > = Q...%.&.(.%X#X&.l X.u ",
"q x X.x b s.x t._.r 1 q.0. .t c A 2 , . 4 4     . @ . . @ 4 N @     @   . @ . ; @ @ . .   . O , q , O , & #.j C l [ H.#Xv x 0.z ",
"t t z t 9.e.x t.&.1 9 9.u 9 O , A N @         X . : : .   @ 4 N @ @ @ @ @ M 4 . . ; @ .     . , t , O q , & j #.q.d.[ ).u.9.0.z ",
"t t X.x e.d.v !.#.1 , e * q O , - > . . X . . o . . . . . . . d N N N N N @     . . : : . . ; O , , * q , O u _.i.f.0.*.j.b 9.z ",
"t q.w.x q.f...#.8 q 9 t , , O q , O . : o ; s O o . . . . . . : @   @ 4 @   @ @ X . . s , j 5 X , q , q 3 O y _.i.e.q.v 0.x 9.z ",
"t w.k.v w.n.).y , e 0 8.0 q * e 1 O . , O s O O o o o a 4 . . . : @ @ N @ ; @   O O . . O , j j 9 e * , q O t &._.i.f.e.w.x 0.z ",
"t e.z.q.t.).=.e 9 t 0 8.* q , e 1 , > O : o X O o s : 4 a 4 . : 6 : @ N @ @   @ : O X X o : , , , q , 9 q *  .r _.i.l.r.f.e.0.z ",
"t q.l.| +.] T X.q 8.u 8.* q 9 , , O O 5 s o X o ; s : . a s : a a a : @ : : @ : a o O O o a s - , z , , q * t 3 #.u.c.r.c.e.0.z ",
"t u.n.^.v  .m 9.0  .v 9.* , q * q O O O h - O o O o O . a h s a a s d a 6 6 : @ : O O X o s ) h 3 q 3 O , * X.9 y ^.n.i.c.x 9.z ",
"&.)._.=.z q.e.9.9 t z  .+ , e , q - h - O o O - h s o o - % ( s s ) _ ( @ 4 4 # O o O o O h ` _ 3 , , , > * 9.q 9.[ $.^.x.b t.-.",
"E | p T t q.l.q.q  .q t O 3 q * q - _ h O o o - h s a . h ) ` _ ) _ _ % . O o % : a o O o - ) _ 3 q , * , * X.0 q.9.c =.&.).#X$X",
"u 9.0.x t w.l.q.q 9.x  .O , , O q O a s O X O h s s 4 s _ :.` :.:._ _ h _ h % : a : o o X O h ;.3 t , O , O q q d.r.t.Q.] u [ #.",
"t w.c.0.v w.z.q.q X.q X.* , , O , , O 5 o O - ) a 4 a ) ` _ ` ;X;X:.:.:.` ` ) s a a a o o o - 1 , 3 , O X O q 0 l.e.x $.X.x 9.c ",
"t q.z.e.q.e.f.w.9 q , t t , O o O , O ; O X o a s 4 s _ :._ :.;X:X:X;X;X` ` _ d a a a o O O O , q , , X O t q q k.w.t u 9.v s.x ",
"t w.c.e.9.w.r.q.q , , z 9.3 & A - , , - - - o o 4 4 s ) _ :.;X:X>X2X>X:X;X` _ ) s a : o O O O 3 q + < O + 9.t 0 l.w.t q.w.v q.t ",
"t w.z.q.b w.l.e.0.9 , z 0.J D L.D & 8 -X;X<X2 X 5 6 a ) _ :.;X>X7X8X7X>X;X` ` _ a : o O o O > q , = C C = X.z 0 d.q.x k.e.q.d.u ",
"t w.v.e.9.e.l.e.0.9 , , x o.H Q L.C Y P <.2X<X2 6 7 6 s h ` ;X>X7X8X2X>X;X:._ s s a O X O o 0 3 & T W G T c q 9 e.q.v f.w.b d.x ",
"t e.l.w.u q.e.e.9.r +.8 , j H K G G ! F ) <.2X1X/ i J.M g :.,.;X,X2X,X;X-Xh s d s A & & M k <X:X:.:.E F c t , 0 k.q.x w.w.w.l.u ",
"t 9.e.w.t q.e.l.t.$.OXF.T r e X.J D.K.K F :.;X:XT.Q K.G.^.w.w.n.].n.w.a.Q.-.G J.R Q C.D E.2X7X2X;X` ` J X.e 9 9.e.q.u k.r.r.d.x ",
"t u w.d.v 0.e.c.r.t.W./.G.Q.p w 3.5X*.E D R P K K.U G.).i.r.z. X.X[.z.r.p.).-.~ ! K.D.^ 3X8X:X>.;.<.;.X.u r #.t.w.q.v l.w.q.e.t ",
"e t w.l.v 9.b d.a.k.%.G.E.W.Q.u 1.6.2.S R U L.W ~ L ^.i.w.c.N..X XV.|.N.l.i.y.^.I.T K.%.1X:X:.>.4.4X] u r Q.E.q.l.9.v f.b q.f.u ",
"E [ e.d.v 9.x 0.e.k.} R.OXD.D.T | `.{ E ! L.Q ! ^.y.t.r.z.N. XXX.X X.X[.M.l.e.p.^.S.K.! P G -.5X5.4.} Q.F.%.L q.l.b q.l.q.q.l.x ",
"%.~.i.q.v X.x z q.r.j.P %.~ W U L.I.Q J.K L.U &.t.e.e.z.b.|..X.XXXXX XB.M.b.c.e.y.-.Z R ! J.&.4.5.' W E.R.E t.c.q.t w.l.v q.l.x ",
"D.E.A.#.C.&.0.z 0.w.w.;._ ;X1X=.K.U L.T K G I.).a.l.v.M.M.V. XXX.XXX.X X|.b.b.c.u.(.G.K.W K K $.`.~ R Q W D w.b.w.x q.k.x q.l.u ",
"+XG.S.D.Q O.w.z l +.e.d.,.<.2X1X^ E R.Q K.F.(.g.l.b.N.|..X|..X.XXX.XXXXX.XN.M.z.r.i.).G.! G K.! P.R.I S ~ J q.c.q.0.e.q.x 0.w.c ",
"W./.F.OXG.$.k.v T u 3.5.f.k.<.;XK K ! %.F.(.i.e.v.M.[..X X.X.XXXXXXXXXXX.X X|.b.l.e.u.y.^.I.S.L.Q R.@.4.4Xa.k.q.x w.c.q.t x X.%.",
"S.G.S.E.oXF.h.L #.3.{.5.5.r.o.P W J.G.^.y.u.e.c.b.M.V.|.V. XXXXXXX.XXX.XXX|.V.M.M.v.l.r.g.(.G.L.! &.2.5.6.l.e.w.m e.z.q.t T F.R.",
"E.oXD.Q P.W $.O.} 2.6.6.5XP.K H G G.(.i.e.e.z.b.x.[..X.X.X.XXXXXXXXX.XXXXX.X|. X[.b.v.v.l.h.^.! D L.*.'.m.q.r.5.4Xb.u.0.c G.OXF.",
"S.E.R.H.L.$.O.k.S $.'.'.U.K.! L.D.^.h.e.z.v.b.].M.N..XXX.XXX.XXXXX.XXX.XXX XV.|.V.M.b.M.M.l.i.#.I C.y.e.0.n 4X5.6.M._.&.Q OXE.Q ",
"G W *.5X5.2.m w.0.%.~ &.A.S.Q R.G.u.l.v.b.b.b.N.N.|..XXX.X.XXX.XXXXXXXXXXX.X.X.X X[.M.].M.c.a.(.I.p Z.p w 2.7.3.f.u.E.A.D.D.D.S.",
"G S 2.5.5.5.].n y C.Z G K.G G U.).a.c.b.b.b.N.|..X.XXXXX.XXXXXXX.XXX.XXX.XXXXXXX XV.M.N.M.b.l.s.^.G.C.Q D Z.'.m.z.y.Q G.oXG.oXE.",
"W G ' 4.6X6.3.2.#.S.L.! Q Z I.(.p.c.v.M.'.N.[..X X.X.X.X.XXXXXXXXXXXXX.XXXXX.X.X.X|. X|.].M.b.l.p.).G.! K L.n.x.).&.W R.E.D.E.S.",
"W E F } }.].$.#.K W L.S.K.G.^.i.e.v.b.v.M.x.V.|.V. XXX.XXX.XXXXXXXXX.XXXXX.XXXXX XV.|.V.M.c.b.b.e.i._.$XQ =.y.T.] D K K W Q W G ",
"G G K K.F.L.Y J.K D ! %.I.(.i.e.z.b.M.z.N.|..X.X.X.XXXXX.XXXXXXXXXXXXXXXXX.XXX.X.X X.X X|.N.M.b.c.e.p._.U.Q.F.L.Q L.K G K G G F ",
"F G Q A.Q G K A.D.K.D.(.i.e.q.z.M.z.M.|..X.XXXXX.XXX.XXXXXXXXXXXXXXXXXXXXXXXXX.XXXXXXXXXXX.X[.M.b.c.e.i.@XI.G E U A.Q W R F F F "
};
