/* XPM */
static char *_9f3c349659b4fdfc5252bca6137d37cWdEne47gLZPMHfrj[] = {
/* columns rows colors chars-per-pixel */
"64 64 237 2 ",
"   c #010104",
".  c #03040B",
"X  c #02090B",
"o  c #0C0C0D",
"O  c #0F110F",
"+  c #040413",
"@  c #0A0916",
"#  c #04041B",
"$  c #09091C",
"%  c #0D1216",
"&  c #121512",
"*  c #141A15",
"=  c #191D17",
"-  c #13161D",
";  c #1B1E1A",
":  c #172114",
">  c #1D221B",
",  c #26201D",
"<  c #21291E",
"1  c #050523",
"2  c #060526",
"3  c #0C0C23",
"4  c #0B062C",
"5  c #0D0D2A",
"6  c #120A24",
"7  c #120D2A",
"8  c #0F1227",
"9  c #131324",
"0  c #171925",
"q  c #11122C",
"w  c #1A1A2B",
"e  c #0C0832",
"r  c #100D32",
"t  c #0E1333",
"y  c #131433",
"u  c #1D1C33",
"i  c #27192B",
"p  c #1D2624",
"a  c #1C232A",
"s  c #1E263A",
"d  c #232425",
"f  c #252D23",
"g  c #24292A",
"h  c #2B2C2C",
"j  c #382B23",
"k  c #273025",
"l  c #2A3326",
"z  c #2B352A",
"x  c #2E392A",
"c  c #37342D",
"v  c #323D2E",
"b  c #272A38",
"n  c #352B35",
"m  c #2B3635",
"M  c #373735",
"N  c #453233",
"B  c #672122",
"V  c #33442D",
"C  c #2E453C",
"Z  c #354232",
"A  c #384534",
"S  c #3B4936",
"D  c #35473C",
"F  c #3D4D3A",
"G  c #2D5132",
"H  c #3A553C",
"J  c #3D6538",
"K  c #4B423B",
"L  c #404E3C",
"P  c #564A3A",
"I  c #43523E",
"U  c #435A3C",
"Y  c #5D5638",
"T  c #685338",
"R  c #476C3A",
"E  c #4E793C",
"W  c #292743",
"Q  c #393847",
"!  c #423B4E",
"~  c #375241",
"^  c #3E6444",
"/  c #464947",
"(  c #574A45",
")  c #465641",
"_  c #495947",
"`  c #4B5C45",
"'  c #535349",
"]  c #474655",
"[  c #524F55",
"{  c #4D5F56",
"}  c #555454",
"|  c #565758",
" . c #5A5B5A",
".. c #655548",
"X. c #745D48",
"o. c #635A55",
"O. c #715D54",
"+. c #486C44",
"@. c #4F6049",
"#. c #52644B",
"$. c #59634E",
"%. c #56694F",
"&. c #4A7544",
"*. c #576A50",
"=. c #5B6E54",
"-. c #5E625D",
";. c #5D7156",
":. c #5F7458",
">. c #7F644C",
",. c #67645F",
"<. c #77655B",
"1. c #657C54",
"2. c #61755A",
"3. c #647B5E",
"4. c #5A5963",
"5. c #636363",
"6. c #6A6867",
"7. c #716D69",
"8. c #677862",
"9. c #686874",
"0. c #747573",
"q. c #777778",
"w. c #8A4135",
"e. c #975A49",
"r. c #876D56",
"t. c #8A7459",
"y. c #907354",
"u. c #A37B5A",
"i. c #977B64",
"p. c #827670",
"a. c #4F8248",
"s. c #568546",
"d. c #599448",
"f. c #63954A",
"g. c #608250",
"h. c #6B9859",
"j. c #66A44C",
"k. c #68AB50",
"l. c #6CB351",
"z. c #71B353",
"x. c #6C8464",
"c. c #768970",
"v. c #7DB166",
"b. c #6EC54F",
"n. c #78D94E",
"m. c #6FC251",
"M. c #74C552",
"N. c #79C757",
"B. c #78CC55",
"V. c #7CD656",
"C. c #7ED957",
"Z. c #7ED359",
"A. c #7EDA58",
"S. c #AD825F",
"D. c #91BF5C",
"F. c #968A6E",
"G. c #B49072",
"H. c #8AB869",
"J. c #A7A77E",
"K. c #C49772",
"L. c #CCA47B",
"P. c #D2AA78",
"I. c #EFB37A",
"U. c #80DD57",
"Y. c #82D75A",
"T. c #81DC59",
"R. c #81E157",
"E. c #83E359",
"W. c #8BE15E",
"Q. c #87CA69",
"!. c #88D567",
"~. c #8FCC75",
"^. c #95D57A",
"/. c #7F7981",
"(. c #838383",
"). c #898788",
"_. c #8B8C8D",
"`. c #9A8880",
"'. c #949394",
"]. c #9C9C9D",
"[. c #B59A82",
"{. c #A39892",
"}. c #94A48C",
"|. c #98BD88",
" X c #9FA19F",
".X c #ADB095",
"XX c #9F9AA1",
"oX c #9BA1A5",
"OX c #A4A4A4",
"+X c #A9A9A7",
"@X c #ACACAC",
"#X c #B1B8AE",
"$X c #AFADB2",
"%X c #B4B5B4",
"&X c #B8B6B8",
"*X c #BDBDBD",
"=X c #D1AD8E",
"-X c #E9B88A",
";X c #F4BC87",
":X c #EBBD91",
">X c #E2BF9D",
",X c #D4B9A2",
"<X c #CBBDB8",
"1X c #94C580",
"2X c #A5D98E",
"3X c #ABD698",
"4X c #B8CCB0",
"5X c #D9CC8F",
"6X c #E4C88E",
"7X c #FBC288",
"8X c #FBC28C",
"9X c #EDC29A",
"0X c #F3C293",
"qX c #FDC997",
"wX c #F4CBA5",
"eX c #FED5A5",
"rX c #FCD8B6",
"tX c #C8E0BD",
"yX c #FFE2BA",
"uX c #BFBEC0",
"iX c #C2C3C2",
"pX c #C8C8C8",
"aX c #CCCCCB",
"sX c #CFD1CF",
"dX c #CEC9D2",
"fX c #D5D5D5",
"gX c #D9D4D7",
"hX c #DADADA",
"jX c #F1DDCD",
"kX c #D6E9CE",
"lX c #E9E6D9",
"zX c #F3E4D6",
"xX c #E1DAE2",
"cX c #E4E1E4",
"vX c #E9E6E9",
"bX c #F3EFF4",
"nX c #F7F8F9",
/* pixels */
"C.C.C.C.C.C.C.C.C.C.C.C.C.C.C.C.C.C.Y.C.C.C.n.A.!.~.Z.~.3XlXkX2X2X2X!.!.A.n.V.V.V.C.C.n.n.n.C.C.C.C.C.C.A.C.C.C.C.C.A.C.C.C.C.C.",
"C.C.C.C.C.C.C.C.C.A.C.C.C.C.C.C.C.C.C.C.C.V.^..XiXpXuXuXvXnXnXcXcXfXpXaXkX3XkXlXkXtXtX|.|.!.C.A.C.C.C.C.C.C.C.C.A.C.C.C.C.C.C.C.",
"C.C.A.C.C.C.C.C.C.C.C.C.C.C.C.A.C.C.C.C.n.3XdX$XuX*X$X+XgXnXnXcXhXfXaXsXvXcXvXnXbXcXcXgXdX^.n.A.C.C.C.C.C.C.C.A.C.C.C.C.C.A.C.C.",
"C.C.C.C.C.C.C.C.C.C.C.T.C.C.C.C.C.C.C.Z.n.3XdX@X*X@XOXoX4XfXfXfXhXsX*XiXsXiXhXnXvXxXhXsXfX~.C.V.C.C.C.C.C.C.C.A.C.A.C.C.C.C.C.C.",
"A.C.C.C.C.C.C.C.C.C.C.C.C.C.C.C.C.C.C.C.n.2X&X%X%XOX).(.XX%X@X$X*X&XoXoXfXaXfXcXhXiXiXaX*X!.n.C.C.C.C.C.C.C.C.V.C.C.C.C.C.C.C.C.",
"C.C.C.C.C.A.C.C.C.C.C.C.C.A.C.C.C.C.C.C.n.1X].+X%X] 3 # 9.aX&X6.4.(.+XoXq.0.4XvXfXuX%X*X$XQ.C.C.C.C.C.C.C.C.A.V.C.A.C.C.C.C.C.A.",
"C.C.C.C.C.Y.C.C.C.A.C.C.C.C.C.C.A.C.A.A.V.~.XXOX+X~ 2 2 Q 9.9.|  .0._.F.| [ $XcXaXuXOX$X#XY.C.C.C.C.C.C.C.C.C.C.C.C.C.C.C.C.C.C.",
"C.C.A.C.C.C.C.C.C.C.C.C.C.C.T.C.C.C.C.Z.V.~.uXOX_.W 1 6 $ # 1 ] ,. . . . .| oXpX%XOX_.v.!.C.C.V.C.C.C.C.C.C.C.C.C.C.C.C.A.C.C.C.",
"A.C.C.C.C.C.C.Y.C.C.C.C.C.C.C.C.C.C.C.C.n.!.#X} 4.a # + + # $ /  .| | | | [ OXaX&X$X_.l.A.C.C.C.C.C.C.C.C.C.C.C.A.C.C.C.C.C.C.C.",
"C.C.C.C.C.C.C.C.C.C.C.C.C.C.C.C.C.C.V.C.C.Z.+X] M i 6 n n n n o.<.7.7.,.O.o.'.uX'.7.6.B.A.C.C.C.Y.C.C.C.C.C.C.C.C.C.C.C.C.A.C.C.",
"C.C.C.C.C.C.C.C.C.C.Y.C.C.C.C.C.C.C.C.C.C.V.~ 3 [.o., 0X:X:X:X:X:X:X6XI.I.G.{.oX[.P.=XC.V.C.C.C.C.C.C.C.C.C.C.C.C.C.C.C.C.C.C.C.",
"C.C.A.C.C.C.C.C.C.C.C.C.C.C.C.A.C.C.C.C.C.V.u + ,X<.0 0X:X:X0X0X0X0X:X;X;XK.{.XX,XqX6XC.V.C.C.C.C.C.A.C.C.C.C.C.C.C.A.C.C.C.A.C.",
"C.A.C.C.C.C.C.C.C.C.C.C.C.A.C.C.C.C.C.C.V.V.m + [.=X[.wXwXzXzXo.j K.:X-X:Xe.B <XlXwX5XT.A.C.C.C.C.C.C.C.C.C.C.C.C.C.C.C.C.C.A.C.",
"C.C.C.C.C.C.C.C.T.C.C.C.C.C.C.C.C.C.C.C.A.V.m # G.eXrXwXwXnXnXb   G.eXqXqXw.B gXnXwX5XY.C.C.C.C.C.C.C.C.C.C.T.C.A.C.C.C.C.C.C.C.",
"C.C.C.C.C.C.C.C.C.C.C.A.C.C.C.C.C.C.A.C.V.A.C 1 ( >X:X9X9XjXzXM @ ' <.O.<.n i <XzX9X5XC.C.C.C.C.C.C.C.C.C.C.C.C.C.C.C.C.C.C.C.C.",
"C.A.C.C.C.C.C.C.C.C.C.C.C.C.C.C.C.C.C.A.A.A.H 1 9 9XqX0X0XrXrX! 5 2 1 # + 2 7 >XyXqX5XV.C.C.C.V.C.A.C.C.C.A.C.C.C.C.C.C.C.T.C.C.",
"C.C.C.C.C.C.C.C.C.A.C.C.C.C.C.C.C.C.C.C.C.R.H 2 0 F.L.=XL.=X,XQ 4 9 9 7 3 7 u p.`.i.H.A.A.C.A.V.C.C.C.C.C.C.C.C.C.C.C.C.C.C.C.T.",
"C.Y.C.C.C.C.C.C.C.C.C.C.C.C.C.C.U.n.A.C.C.A.^ e 3 + $ 6 3 7 7 5 5 5 5 5 8 5 7 3 3 # V V.B.A.C.A.C.C.C.C.C.C.C.C.C.C.C.A.C.C.C.C.",
"C.C.C.C.C.C.C.C.C.C.A.C.C.C.C.C.C.k.l.B.V.W.J 2 5 # $ $ 1 3 7 3 3 5 3 3 3 5 5 8 7 1 p b s n.A.A.C.C.C.C.C.C.C.C.C.C.C.C.C.C.C.C.",
"C.C.C.C.C.A.C.C.C.C.C.C.C.C.C.C.V.b t Z H s.@.m m 3 $ $ $ 3 3 3 3 3 3 3 3 $ $ 3 $ + - g 4 a.E.V.C.C.C.C.C.C.C.C.C.C.C.C.C.C.C.C.",
"C.C.C.C.C.C.A.C.C.C.C.C.C.C.n.A.l.y y a f A ` #.@.0 $ + + $ 1 3 $ 1 $ 3 $ 3 9 $ 9 9 d V y s M.A.V.C.C.C.C.C.C.C.C.C.C.C.C.C.C.C.",
"C.C.C.C.C.C.C.C.C.C.C.C.A.C.A.E.a.4 y 5 3 a x k k f > m 0.[ * x _ ) ) f > '.'.f v ` I x z e &.E.V.C.C.C.C.C.C.C.A.C.C.C.C.C.C.C.",
"C.C.C.C.C.C.Y.C.C.C.C.C.C.C.C.R.^ e y q 5 0 p > > f < / @X0.: L 2.#.` v k -.} > v ` @.A l 0 y l.U.C.V.C.C.C.C.C.C.C.C.C.C.C.C.C.",
"C.C.C.C.C.C.C.C.C.C.C.C.C.C.C.A.H e y r y 7 5 3 $ 0 > > f f f F =.` _ v < : * * v @.#.) v g r d.E.C.V.C.C.C.C.C.C.C.C.Y.C.C.C.C.",
"C.C.A.C.A.A.C.C.C.C.C.C.C.C.V.C.Y 6 7 3 3 3 3 3 $ - > > < f x I :.#.@.F Z v Z x F @.#.` l w s V.C.C.C.C.C.C.C.C.C.C.C.C.C.C.C.A.",
"C.C.C.C.A.Y.C.C.C.C.A.C.C.C.C.C.T 6 5 6 3 $ + + . - Z A I ) ` %.3.=.%.#.@.` I S S A V a 5 4 R E.C.C.C.C.C.C.C.C.C.C.C.A.C.C.C.C.",
"C.A.C.C.C.C.C.C.C.C.C.C.C.V.C.C.T 7 5 5 3 3 $ $ + - S S I I I #.8.:.;.F Z z v I k - 9 8 t y l.U.C.C.C.C.C.C.C.C.A.C.C.C.C.C.C.C.",
"C.Y.C.C.C.C.C.C.C.C.C.C.C.C.C.U.T 4 q 5 3 3 3 3 $ - I S < f f ) c.3.2.V < > l ) a # 3 8 2 C C.C.V.C.C.C.C.A.C.C.C.C.C.C.C.Y.C.C.",
"C.A.C.C.A.C.C.A.C.C.C.C.C.C.C.U.F 2 8 3 3 $ $ + + @ ) A = > < L x.;.#.k = O , V - @ $ 8 4 d.R.V.C.C.C.C.C.C.C.C.C.C.C.A.C.C.C.C.",
"C.C.C.C.C.C.C.C.C.C.C.C.C.C.C.U.D 2 8 3 3 3 $ + + @ V l o % O v =.` ` > O o > V 9 # 8 1 a M.A.C.C.V.C.C.C.C.C.C.C.C.C.C.C.C.C.C.",
"C.C.C.C.C.C.C.C.C.C.C.C.C.C.C.A.D 4 t 8 3 3 3 $ @ @ v l o O & Z 2.%.#.f = & f S 9 $ 8 2 +.E.V.C.C.C.C.C.C.C.C.C.C.C.C.C.C.C.C.C.",
"C.C.C.C.C.C.C.C.C.A.C.C.C.C.C.C.D e q q 5 3 3 $ + $ A v & * = S 3.=.%.k > & l F 0 3 2 t l.A.V.V.C.C.C.C.C.C.Y.C.C.A.C.C.C.C.C.C.",
"A.C.C.C.C.C.C.C.C.C.C.C.C.V.V.C.~ r y y q 5 5 3 $ 3 M A * > > L x.2.=.l < ; v ) 9 7 n $.Z.A.C.C.C.C.C.C.C.C.C.A.C.C.C.C.C.C.C.C.",
"C.C.C.C.C.A.C.C.C.C.C.C.C.C.C.C.Q r y y y 7 5 9 3 3 S S > > < I c.3.;.V l l A F i.G.S.H.A.A.C.C.C.C.C.C.C.C.C.C.C.C.C.C.T.C.C.C.",
"C.C.C.C.C.C.C.C.C.C.C.C.C.C.C.C.~ 2 7 4 3 3 $ $ $ $ S L < v A @.3.;.%.` ) I F S N c v m.A.C.C.C.C.C.C.C.C.A.C.C.C.C.A.C.C.C.C.C.",
"C.C.A.C.C.C.C.A.C.C.C.C.C.C.C.V.Q y u u u 9 6 # + + x L L U @.*.3.;.%.@.@.` I I R d.M.A.A.A.C.C.C.C.C.C.C.C.C.C.C.C.C.C.C.C.C.C.",
"C.A.C.C.C.C.C.C.C.C.C.C.C.C.C.V.^ =X:X=XP.L.K.K.S.u.Y S ) ` #.;.x.3.:.;.%.@.I U V.E.A.C.C.C.C.C.C.C.C.C.C.C.A.C.C.C.C.C.A.C.C.C.",
"C.C.C.C.C.C.C.C.C.C.C.C.C.C.T.b.F.9X0X;X8X8X;X8X7X7Xt.D @.@.%.;.x.2.=.#.` ) I U B.V.C.C.C.C.C.C.C.C.C.C.C.C.C.C.C.C.C.C.C.C.C.C.",
"C.C.C.Y.C.A.C.C.C.C.C.C.C.C.A.V.[...( P P ( Y ..X.>.U L ) ) ` =.3.;.%.` ) F z V B.A.V.C.V.C.A.C.C.C.C.C.C.C.C.C.C.C.C.C.C.C.C.A.",
"C.C.C.C.C.C.C.C.C.C.C.C.C.C.V.W.}.g h d - - X X % % l I I ) ) ` 2.I Z k > &   : n.C.C.C.C.C.C.C.C.C.C.C.C.C.C.C.C.C.Y.C.C.C.C.C.",
"C.C.C.C.C.C.C.C.C.C.C.C.C.C.V.T.J.g c h d N y.y.t.i.P & > > = Z 2.v = * % @ + 9 b.A.C.C.A.A.A.A.C.C.C.A.C.C.A.C.C.C.C.C.C.C.C.C.",
"C.C.C.C.C.A.C.C.C.C.C.C.C.C.C.T.2.p d g d N 7XI.8XeXr.  o o O > f % + @ @ 3 u W h.E.V.C.V.A.A.A.Y.C.C.C.C.C.C.C.C.C.C.C.A.C.C.C.",
"C.C.C.C.C.C.C.C.C.C.C.C.C.C.C.Z.L d h g f N I.I.-XeXr.  o   .     . + $ $ ] ).'.}.C.C.C.V.V.C.C.A.A.C.C.C.C.C.C.C.C.C.C.C.C.Y.C.",
"C.C.C.C.Y.C.A.C.C.C.C.C.C.C.C.V.L n M M p t.;XI.wX>X,       . o . . $ $ 1 u | ] b a.E.V.n.C.C.C.A.C.C.C.C.C.C.C.C.C.A.C.C.C.C.C.",
"C.C.A.C.C.C.C.C.C.C.C.C.C.C.C.V.L n m a K -X:XeXwX( + $ $ + X   . + $ 3 3 3 3 5 u { V.V.V.A.C.C.C.C.C.C.C.C.C.C.A.C.C.C.C.C.C.C.",
"C.C.C.C.C.C.C.C.C.C.C.C.C.C.C.Z.z.j.j.j.z.G.`.O.p.1 # $ $ + . l * + $ $ $ $ u q.'.XXQ.A.V.A.C.C.C.C.C.C.C.A.C.C.C.C.C.C.C.C.C.C.",
"C.C.C.C.C.C.C.C.C.C.C.C.C.C.C.C.U.R.A.E.V.8.9.Q 9.Q b b $ - d.E.G + # + + + $ 4.4.Q { A.A.A.V.C.C.A.C.C.C.C.C.C.C.C.C.C.C.C.C.C.",
"C.C.C.C.C.C.C.C.C.C.C.C.C.V.C.C.C.C.V.V.A.h./.] 4.] ! Q &.b.R.R.d.@ . + @ # $ $ 1 2 5 j.E.V.A.A.C.C.C.C.C.C.C.C.A.Y.A.C.C.C.C.C.",
"C.Y.A.A.C.C.C.C.A.C.C.C.C.A.C.C.C.C.C.V.R.f.5.7.2.1.s.z.R.A.C.C.B.p   + $ $ 3 3 q q e C C.C.C.C.C.C.C.C.C.C.C.C.C.C.C.C.C.C.C.C.",
"C.C.C.A.C.A.C.C.C.C.C.C.C.C.C.C.C.C.C.C.C.M.j.V.C.Y.E.A.V.V.C.V.A.J . @ $ $ $ $ 3 y W ] N.C.C.C.C.C.C.C.C.C.C.C.C.C.C.C.C.C.C.C.",
"A.C.C.C.Y.A.C.C.C.C.C.C.C.C.C.C.C.C.C.C.C.C.E.C.C.C.C.V.C.C.C.V.E.j.+ + $ 9 b ! 4._. X@X|.C.C.C.C.C.C.C.C.C.C.C.C.C.C.C.C.C.C.C.",
"C.C.C.C.C.C.C.C.C.C.A.C.C.C.C.C.C.C.C.C.C.C.C.C.C.V.V.C.C.V.C.C.C.n.p + q 6.q.)._.'._.(.q.B.C.C.C.A.C.C.C.C.C.C.C.C.C.C.C.C.C.C.",
"C.C.C.C.C.C.C.C.A.C.C.C.C.C.C.Y.C.C.C.C.C.C.C.C.V.C.C.C.C.C.C.C.C.E.a.X ] q.-. . .' ' ' [ h.T.C.C.C.C.C.C.C.C.C.C.C.C.C.C.C.A.C.",
"C.C.A.C.C.C.C.A.C.C.C.C.C.C.C.C.C.C.C.C.C.C.C.C.C.C.C.C.C.C.V.C.C.A.k.b 7.| M M / / | 4.q.c.Q.C.C.C.C.C.C.C.C.C.C.C.C.C.C.Y.C.C.",
"C.C.C.C.C.C.C.C.C.C.C.C.C.C.C.C.C.C.C.C.C.C.C.C.C.C.C.C.C.C.C.C.C.A.C.x.4.M K ' }  .6.0./.).H.U.V.C.C.C.C.C.C.C.C.C.C.A.C.C.C.C.",
"C.C.C.C.C.C.C.C.C.C.A.C.C.C.C.C.C.C.C.C.C.C.C.C.C.C.C.C.C.C.C.C.C.A.E.z./ h } 5.5. .|  .' / / B.C.C.V.C.C.C.C.C.C.C.C.C.C.C.C.C.",
"C.C.C.A.C.C.C.C.C.C.C.C.C.C.C.C.C.A.C.C.C.C.C.C.C.C.C.C.C.C.C.C.C.C.A.B.S !  .' M h g d g h M h.U.n.C.C.C.C.C.C.C.C.C.C.A.C.C.C.",
"C.C.C.C.C.C.C.A.A.C.C.C.C.U.C.C.C.C.C.C.A.C.C.A.C.C.C.C.C.C.C.C.C.C.A.n.g.} / > ; ; h K r.F.M L Y.C.C.C.C.C.C.C.C.A.A.A.C.C.C.C.",
"C.C.C.C.C.A.C.C.C.C.C.A.C.C.C.C.C.C.C.C.C.C.C.C.C.C.C.C.C.C.C.C.C.C.V.C.v.} ; ; > O y.I.qXeXr.g k.E.C.C.A.C.C.A.C.C.C.Y.C.C.C.C.",
"C.A.C.C.C.C.C.C.C.C.C.C.C.C.C.C.Y.C.C.C.C.C.C.C.C.C.C.C.C.Y.C.C.C.C.C.C.Y.S o & & o P ;XL.i.N &.V.C.C.C.C.C.C.C.C.C.C.C.C.C.C.A.",
"C.C.C.C.C.C.C.Y.C.C.C.A.C.C.C.C.C.C.C.C.C.C.C.C.C.C.C.C.C.C.U.C.C.C.C.V.R.R . o O O ; N , & R U.U.V.U.V.A.C.C.C.C.C.C.C.C.C.C.C.",
"C.C.A.C.C.C.C.C.C.C.C.C.C.C.C.C.C.C.C.C.C.A.C.C.C.C.C.C.C.C.V.C.C.V.C.V.C.N.T   O o o ; v s.C.C.V.C.V.C.C.C.C.C.C.A.C.C.C.C.C.C.",
"C.C.C.C.C.C.C.C.C.C.C.C.C.C.C.Y.C.A.C.C.C.C.C.C.Y.C.C.C.C.C.C.C.C.C.V.C.U.U.P.& : G E l.C.A.C.V.C.V.C.C.C.C.C.C.C.C.C.C.C.C.C.A.",
"U.C.C.C.C.A.C.C.C.C.C.C.C.C.C.C.C.C.C.C.C.C.C.C.C.C.C.C.C.V.U.C.C.C.Y.n.Y.n.D.f.M.U.R.E.C.C.C.C.C.C.C.C.C.C.C.C.C.Y.C.C.C.C.C.C."
};
