/* XPM */
static char *db39270e66894487bb8af31483d8edea2mE0tlJFblf9beKD[] = {
/* columns rows colors chars-per-pixel */
"64 64 233 2 ",
"   c #020204",
".  c #03030B",
"X  c #04090D",
"o  c #0C0B0C",
"O  c #0F110F",
"+  c #040414",
"@  c #0B0C15",
"#  c #04041B",
"$  c #080819",
"%  c #0A0A1C",
"&  c #0E1416",
"*  c #121412",
"=  c #151A14",
"-  c #171C19",
";  c #1A1D1B",
":  c #1C221B",
">  c #1A261A",
",  c #21251E",
"<  c #21291E",
"1  c #050522",
"2  c #0C0C23",
"3  c #070528",
"4  c #0D0E2A",
"5  c #100F27",
"6  c #0F1027",
"7  c #121325",
"8  c #161924",
"9  c #1A1E22",
"0  c #12122D",
"q  c #1A172A",
"w  c #1D1C2C",
"e  c #0D0931",
"r  c #110E33",
"t  c #131433",
"y  c #161933",
"u  c #1B1D34",
"i  c #1D1E38",
"p  c #2D0E21",
"a  c #221D2C",
"s  c #1D2223",
"d  c #1A2129",
"f  c #1C2136",
"g  c #222423",
"h  c #242C22",
"j  c #222329",
"k  c #26292B",
"l  c #2B2B2B",
"z  c #35272C",
"x  c #2A3226",
"c  c #2A3429",
"v  c #293628",
"b  c #3B322A",
"n  c #313D2D",
"m  c #272836",
"M  c #342E35",
"N  c #29373A",
"B  c #353435",
"V  c #383A37",
"C  c #630F10",
"Z  c #43252A",
"A  c #40322B",
"S  c #473B3A",
"D  c #783632",
"F  c #2B442B",
"G  c #34422F",
"H  c #364333",
"J  c #394634",
"K  c #374932",
"L  c #3B4A37",
"P  c #3C443B",
"I  c #3E4C3A",
"U  c #395936",
"Y  c #46453B",
"T  c #414D3C",
"R  c #584B3D",
"E  c #43523E",
"W  c #445F39",
"Q  c #416635",
"!  c #49733B",
"~  c #292843",
"^  c #393747",
"/  c #35314E",
"(  c #483A48",
")  c #3E4643",
"_  c #3B5A42",
"`  c #464645",
"'  c #4C4C4B",
"]  c #5B4E45",
"[  c #465541",
"{  c #4A5641",
"}  c #4B5B45",
"|  c #4D5D48",
" . c #54584C",
".. c #4A4B59",
"X. c #524C54",
"o. c #535353",
"O. c #575758",
"+. c #5C5C5B",
"@. c #675448",
"#. c #77584A",
"$. c #6D5B55",
"%. c #4F6049",
"&. c #52644C",
"*. c #55684F",
"=. c #497A44",
"-. c #587C48",
";. c #576A50",
":. c #5A6D53",
">. c #5D7156",
",. c #5F7358",
"<. c #78614A",
"1. c #66635E",
"2. c #776359",
"3. c #637957",
"4. c #647A5D",
"5. c #535362",
"6. c #666666",
"7. c #736A63",
"8. c #677761",
"9. c #6D6B72",
"0. c #757574",
"q. c #7A7A7A",
"w. c #887059",
"e. c #967454",
"r. c #83756A",
"t. c #957B68",
"y. c #548447",
"u. c #598949",
"i. c #5D9949",
"p. c #659253",
"a. c #64A54E",
"s. c #66A94E",
"d. c #69B64D",
"f. c #69A951",
"g. c #70AF59",
"h. c #6DB553",
"j. c #74B657",
"k. c #71BC54",
"l. c #6C8363",
"z. c #738A6A",
"x. c #719561",
"c. c #76D54D",
"v. c #74C254",
"b. c #7AC756",
"n. c #7ACC55",
"m. c #79D555",
"M. c #7DD656",
"N. c #7ED957",
"B. c #7FD958",
"V. c #7FE257",
"C. c #88AA5A",
"Z. c #8F8C79",
"A. c #B48B6C",
"S. c #B39F6A",
"D. c #AA8C73",
"F. c #B69577",
"G. c #8EAF6F",
"H. c #C4986F",
"J. c #C89D77",
"K. c #CDA17B",
"L. c #D7A97F",
"P. c #E5AE7B",
"I. c #F6B87D",
"U. c #80DE57",
"Y. c #81D65B",
"T. c #81DB5A",
"R. c #83E358",
"E. c #83E259",
"W. c #84C665",
"Q. c #88D664",
"!. c #8CCA72",
"~. c #95D576",
"^. c #BDCC7E",
"/. c #A6E16E",
"(. c #C7CF7E",
"). c #7A7A81",
"_. c #807D82",
"`. c #888788",
"'. c #8A9B86",
"]. c #969596",
"[. c #9C9A9C",
"{. c #A5978F",
"}. c #99B18D",
"|. c #A2B39B",
" X c #A4A3A3",
".X c #A8A8A7",
"XX c #ABABAC",
"oX c #ADB3AC",
"OX c #B1B7AE",
"+X c #B1AEB2",
"@X c #B3B3B3",
"#X c #BBBBBC",
"$X c #C8A788",
"%X c #DFAB82",
"&X c #DBB896",
"*X c #E9B788",
"=X c #F5BC86",
"-X c #E3BB94",
";X c #ECBE91",
":X c #F1BF93",
">X c #D0B9A8",
",X c #9BCE85",
"<X c #A6D393",
"1X c #BBD0B2",
"2X c #C3D087",
"3X c #FBC28A",
"4X c #EDC299",
"5X c #F3C293",
"6X c #FAC89A",
"7X c #FFCC9A",
"8X c #FFD09C",
"9X c #CDCCBE",
"0X c #C4DBB9",
"qX c #F5C9A5",
"wX c #FCD4AA",
"eX c #EECFB2",
"rX c #FADAB9",
"tX c #C2E4B4",
"yX c #C5BEC8",
"uX c #C4C4C4",
"iX c #C9C6CB",
"pX c #CBCBCA",
"aX c #D0D0D1",
"sX c #D3D4D3",
"dX c #DBD7DB",
"fX c #DCDBDB",
"gX c #EDDECD",
"hX c #D2E7C9",
"jX c #E8E8DC",
"kX c #E4DFE5",
"lX c #E9E9E8",
"zX c #F3EEEA",
"xX c #F8F7FA",
/* pixels */
"N.N.N.N.N.N.N.B.N.N.N.N.N.N.N.N.B.N.m.V.m.m.m.N.N.B.N.Q.~.~.<X<XhXjXtX,Xb.!.!.B.M.M.N.M.N.N.N.N.N.N.N.N.N.N.N.N.N.N.N.N.N.N.N.N.",
"N.N.N.N.N.N.N.U.N.N.N.N.N.N.N.N.N.Q.,X}.1X0XhXjXhX<XtXaXiXaXlXkXlXxXxXpXyXiXuXoX,XY.M.M.N.N.N.N.N.N.N.N.N.N.N.N.N.N.N.N.N.N.N.N.",
"N.N.N.N.N.N.N.N.N.N.N.N.N.N.N.N.N.B.iXsXlXlXlXxXlXfXlXsXiXsXkXfXzXxXzXOXXX@XuX@XuX0XY.N.N.N.N.N.B.N.N.N.N.N.N.N.U.B.B.N.N.N.N.N.",
"N.N.N.B.N.N.B.N.N.N.B.N.N.N.N.N.B.B.uXaXsXfXlXxXlXuXsXpX1XuXsXdXsXfXaX.X.X X#XoXuXsXQ.N.N.N.N.N.N.N.N.N.N.N.N.N.B.B.B.N.N.N.N.N.",
"N.N.B.N.N.N.N.N.N.N.N.N.N.N.N.N.N.B.1XaXuXyXpXlXfXiXdX@X[..X#X@XXX@XXX`._.[.@X#X+X1XY.M.N.N.N.N.N.N.N.N.N.N.N.N.N.N.N.N.N.N.N.N.",
"N.N.N.N.N.N.N.N.N.N.N.N.N.N.N.N.N.N.|.yX#X>XpXlXsXq.0.].XX].7.5.].pX.X0 3 ~  XOX].|.Y.M.N.N.N.N.N.N.N.N.N.N.N.N.N.N.N.N.N.N.N.N.",
"B.N.N.N.N.N.N.N.N.N.N.N.N.N.N.N.N.N.|.iXXX#XuXfXiX5.o.q.`._.+.+.5.9.5.0 1 f [..X].|.N.N.N.N.N.N.N.N.N.N.N.N.N.N.U.B.N.N.N.N.N.N.",
"N.N.N.N.N.N.B.N.N.N.Y.M.N.N.N.N.N.N.N.!.'. X.XuX@X:.+.+.;.+.+.1.0 # # % 2 y 0. X#X<Xm.N.N.N.N.N.N.N.N.N.N.N.N.N.B.B.N.N.N.N.N.N.",
"N.N.N.N.N.N.T.N.N.N.N.N.N.N.N.N.N.N.N.c.Z.oX+XuX#X+.O.+.+.O.+.O.7 # # + $ 1 O.'  X,Xm.M.N.N.N.N.N.N.N.N.N.N.N.N.B.B.N.N.N.N.N.N.",
"N.N.N.N.N.N.N.N.N.N.N.N.N.N.N.N.N.m.N.m.l.9.`.@XXX1.1.1.7.7.7.2.V M M B a 2 ^ V [.!.m.M.N.N.N.N.N.N.N.N.N.N.N.N.N.N.N.N.N.N.N.N.",
"N.N.N.N.N.N.N.N.N.N.N.B.N.N.N.N.N.N.N.N.^.%X$X[.[.A.P.*X*X4X;X;X;X;X;X7X@.a &Xm m g.E.N.M.N.N.N.N.N.N.N.N.N.N.N.N.N.N.N.N.N.N.N.",
"N.N.N.N.N.N.N.N.N.N.N.N.B.N.N.N.N.N.N.N.(.6X-X X XA.P.P.5X5X5X5X:X:X;X7X] k wXa + a.E.M.N.N.N.N.N.N.N.N.N.N.N.N.N.N.N.N.N.N.N.N.",
"N.B.N.N.N.N.N.N.N.N.N.N.N.N.N.N.N.N.N.m.2XqXgXdXw.D L.*X;X*XS A 9XzXeXqX$X$X-X8 2 f.E.N.N.N.N.N.N.B.B.B.N.N.N.N.N.B.B.B.N.N.N.N.",
"N.N.N.N.N.N.N.B.N.N.N.N.N.N.T.N.N.N.N.c.2XqXzXxXD C *X6X7X;Xo   aXxXeXqXwXwX-Xq 4 h.N.N.M.N.N.N.U.B.N.B.N.N.N.N.N.B.B.B.N.N.N.N.",
"N.N.N.N.N.N.N.N.N.N.N.N.N.N.N.N.N.N.N.N.^.:XrXgX( p @.#.2.$.& 2 >XzX6X6X4X6XZ.# t h.V.N.N.N.N.N.N.N.N.N.N.N.N.N.N.N.N.U.N.N.N.N.",
"N.N.N.T.N.N.N.N.N.N.N.N.N.N.N.N.N.N.N.m.(.qXwXgX( 3 # # 1 1 r y &XgX6X5X5XwX@.# u k.N.N.M.M.N.N.B.N.N.N.N.N.N.N.N.N.N.N.N.N.N.N.",
"N.N.N.N.N.N.N.N.N.N.N.N.N.N.N.M.N.N.N.V.C.t.D.{.^ 3 7 7 4 0 4 0 {.>X$XK.K.F.( 1 i v.B.B.M.M.M.B.N.M.N.N.N.N.N.N.N.N.U.B.B.B.N.N.",
"N.N.N.N.N.N.N.N.N.N.N.N.N.N.N.N.N.N.n.T.=.# # 1 2 4 2 4 4 2 5 4 2 4 2 2 % + # 4 f n.B.B.V.E.N.B.N.N.N.N.N.N.N.N.N.N.N.N.B.B.N.N.",
"N.N.N.N.N.N.B.N.N.N.N.N.N.M.N.M.m.U.U u c % 2 4 2 4 2 2 4 4 5 7 2 6 2 2 % % 2 3 d m.B.n.k.a.n.B.N.M.N.N.N.N.N.N.N.N.N.N.N.N.N.B.",
"N.N.N.N.T.N.N.N.N.N.N.N.T.N.N.M.E.d.t u s + % 1 2 # 2 2 2 % 2 1 2 2 % % % 2 m V ) u.Q J i r i.R.M.N.N.N.N.N.N.N.N.N.N.N.N.N.N.N.",
"N.N.N.N.N.N.N.N.N.N.N.N.N.N.N.M.B._ r n c 8 7 2 7 7 2 2 2 2 2 % % 1 + + % 1 E &.&.[ k d t 3 =.E.M.M.N.N.N.N.N.N.N.N.N.N.N.N.N.N.",
"N.N.N.N.N.N.N.N.N.N.N.N.N.N.M.E.a.r j v I | E > 1.XXP > I ) [ P = ) q.` ; h x x c c 0 4 t 3 [ T.M.M.N.N.N.N.N.N.N.N.N.N.N.N.N.N.",
"N.T.N.N.N.N.N.N.N.N.N.N.M.N.N.M.H e x n } %.I : P 6.H < } %.>.| > O.XX6.> x : : s s 0 4 t r c T.N.M.N.N.N.N.N.N.N.N.N.N.N.N.N.N.",
"N.N.N.N.N.N.N.N.N.N.N.N.N.M.N.v.y y v T &.} T : = * h v E %.:.} h h h h : s 2 2 4 4 0 t t t i v.V.M.N.N.N.N.N.N.N.N.N.N.N.N.N.N.",
"N.N.N.N.N.N.N.N.N.N.N.N.N.N.m.E._ t c I &.&.{ n n H H J | &.>.| n c h : : ; % % 2 2 2 2 0 2 z W.N.M.N.N.N.N.N.N.N.N.B.B.B.N.N.N.",
"N.N.N.N.N.N.B.N.N.N.U.N.N.N.N.E.s.r 4 0 n K K L T { | &.*.:.3.>.%.[ E I H h + + $ # % 2 2 4 p Y.N.N.N.N.N.N.N.N.N.N.B.U.B.N.N.N.",
"N.N.N.N.N.N.N.N.N.N.B.N.N.N.M.N.m.N r 4 8 8 s T J x n H *.>.4.>.E Q [ I I c + $ % 2 2 0 t 4 Z b.V.M.B.N.N.N.N.N.N.N.N.N.N.N.N.N.",
"N.N.N.N.N.N.N.N.N.N.N.N.N.N.M.M.R.y.3 6 1 % 2 [ H : h h :.4.z.:.h h g n [ k + $ 2 2 2 2 0 4 z W.V.M.N.N.N.N.N.N.N.N.N.N.N.N.N.N.",
"N.N.N.N.N.N.N.N.N.N.N.N.N.N.N.M.V.k.t 4 2 % % F x O = : } :.8.&.< , - n | h + + % % 1 2 4 2 a v.N.M.M.N.N.N.N.N.N.N.N.N.N.N.N.N.",
"N.N.N.N.N.T.N.N.B.N.B.N.N.N.M.N.M.V.U 3 2 2 % n h o * = T } :.E * @ o h H : + + % % 2 2 0 4 y v.V.M.N.N.N.B.N.B.N.N.N.N.N.N.N.N.",
"N.N.B.N.N.N.N.N.N.N.N.N.N.B.N.N.M.R.i.e 6 2 % H n * - : { *.3.[ = * o > H ; + $ % 2 4 2 0 4 y v.N.N.M.N.B.B.N.N.N.N.N.N.N.N.N.N.",
"N.N.N.N.N.N.N.N.N.N.N.N.N.N.N.N.M.B.B.N 3 4 6 J n = : : } >.4.| : - * c L 8 + % 2 2 4 4 t r y v.V.M.N.N.B.B.U.N.N.N.N.N.N.N.N.N.",
"N.N.B.N.N.N.N.N.N.B.N.N.N.N.N.N.N.N.U.p.V 0 2 T L - > h *.,.l. .< > = v T 8 $ 2 4 4 4 4 t t t j.R.N.N.N.N.B.N.N.N.N.N.N.N.N.N.N.",
"N.N.N.N.N.N.N.N.N.N.N.N.N.N.N.B.N.T.T.Y.D.A.A.E L G v v *.,.z.;.h , - H E 9 1 4 4 4 t t t t i k.N.B.M.N.N.N.N.N.N.N.N.N.N.N.N.N.",
"N.N.N.N.B.N.N.N.N.N.N.N.N.N.N.N.M.M.N.N.W z S Y L [ E } *.>.8.:.L J h J E 7 $ % 2 2 4 2 r e t h.N.M.B.N.N.N.N.B.T.N.N.N.N.N.N.N.",
"N.N.N.N.N.N.N.N.N.N.N.N.B.N.N.N.N.N.M.N.n.i.! } E [ %.%.*.:.4.:.&.E E T H $ $ % 2 5 q w m m i g.R.N.M.N.N.N.N.N.N.N.N.N.N.N.N.N.",
"N.N.N.N.N.V.B.N.N.N.B.N.B.N.N.N.N.N.N.M.N.R.R.-.I %.&.:.>.4.l.4.&.%.[ T T e.A.A.H.K.L.*X-X5X7.s.R.N.N.N.N.N.N.N.N.N.N.N.B.N.N.N.",
"B.N.N.N.B.N.B.M.N.N.N.N.N.N.N.N.N.N.M.N.N.M.N.y.P [ %.%.:.3.l.4.:.&.} E  .I.I.I.3X3X3X5X;X6XD.s.U.N.N.N.N.N.N.N.N.N.N.N.N.N.N.N.",
"N.N.N.N.N.N.N.N.B.N.N.N.N.N.N.N.N.M.Y.N.N.N.R.! < L [ } *.:.3.>.%.} } U E <.<.<.R R R R ] Y t.W.m.N.N.N.N.N.N.N.N.N.N.N.N.N.N.T.",
"N.N.B.N.N.N.N.N.N.N.N.N.N.N.N.N.N.N.N.N.N.T.R.Q   & > h n L >.>.E [ E I G & & X X & ; 9 M 9 r./.c.T.N.N.N.N.N.N.N.N.N.N.N.N.N.N.",
"N.N.N.V.B.N.N.N.N.N.B.N.N.N.N.B.N.N.N.N.M.N.N.F + @ * * ; h >.E : : ; = x w.t.e.e.R g l l g 7.~.m.N.N.N.N.N.N.N.N.N.T.N.N.N.N.N.",
"N.N.N.N.B.B.N.N.N.N.N.N.B.V.N.N.N.N.N.N.M.N.b.^ u 0 3 # @ @ : g * O o   z 7X7XI.I.<.; l l ; o.W.N.N.N.N.N.N.T.N.N.N.N.N.N.N.N.N.",
"N.N.N.N.N.N.N.N.N.N.T.N.M.N.N.N.N.N.N.N.N.V.G.[.`.6.% % + .     .   o   b 6X;XP.I.#.9 l l l B j.V.M.N.N.N.N.N.N.N.N.N.N.N.N.N.N.",
"N.B.N.N.N.N.N.N.N.N.M.N.B.N.N.N.N.N.M.M.V.d./ / 5.^ $ % $ $ . o . .     . F.wX;X=XJ.l l B V M f.R.N.N.N.N.N.N.B.N.B.N.N.N.N.N.N.",
"N.N.B.N.N.N.N.N.N.N.N.N.N.N.N.N.M.M.M.T.V.l.~ r 3 4 4 2 % + .   . @ $ $ + j &XwX5X3X2.g B B M f.N.N.N.N.N.N.N.N.N.N.N.N.N.N.N.N.",
"N.N.N.N.N.N.N.N.N.N.N.N.N.N.N.N.M.M.T.N.Q.}.]._.) $ $ 1 2 + + F @ . $ % 1 + ..7.`.D.C.s.a.f.f.n.N.N.N.N.N.N.N.N.N.N.N.N.N.N.N.N.",
"N.N.N.N.N.N.N.N.N.N.N.N.N.T.N.N.M.N.m.V.y./ ..6.w + + X @ + 8 M.s.v # u ^ m ../ 5.6.d.R.U.U.U.N.m.N.N.N.N.N.N.N.N.N.N.T.N.N.N.N.",
"N.N.N.N.N.B.N.N.N.N.N.N.N.M.N.M.N.N.N.n.N 3 1 2 % % + + + + U R.R.M.u.) ^ ( 5...6.4.v.N.M.N.Y.N.N.N.N.N.N.N.N.N.N.N.N.N.N.N.B.N.",
"N.N.N.N.N.N.N.N.N.N.N.N.B.N.N.N.M.M.E.=.e t 0 4 2 % # $ . + a.R.c.M.R.b.u.3.4.8.9.3.N.N.N.N.N.N.N.N.N.N.N.N.N.N.N.N.N.N.N.N.N.N.",
"B.N.N.N.N.N.N.N.N.N.N.N.N.N.B.B.T.M.T.:.~ u 4 3 1 % % $ X > M.M.Y.M.Y.U.R.U.Y.Y.h.k.U.M.N.N.N.N.N.N.N.N.N.N.N.N.N.N.N.N.N.T.N.N.",
"N.N.N.N.N.N.V.N.N.N.N.N.N.B.B.B.T.m.!.+XXX].9...~ w 2 @ + ! R.M.M.U.Y.M.U.c.N.M.U.U.N.N.M.N.N.N.N.U.N.N.N.N.N.N.N.N.N.N.N.N.N.N.",
"N.N.B.N.B.B.B.N.N.N.N.N.N.B.B.B.Y.T.z.).`.].`.`.q.0.N + % d.V.M.M.M.U.c.Y.U.N.N.M.M.N.M.N.N.N.N.N.N.N.N.N.T.N.N.N.N.N.N.N.N.N.N.",
"N.N.N.N.B.N.N.N.N.N.N.N.N.M.N.M.R.j.+.o.o. .O.+.+.0.6.% v T.N.M.N.U.M.M.M.N.U.M.U.M.M.U.N.N.N.N.N.N.N.N.N.N.N.N.N.N.N.N.N.N.N.N.",
"N.N.N.N.N.N.N.N.N.N.N.N.N.M.B.M.R.z.q.6.+.' Y V V ' 7.^ y.R.M.N.N.N.M.U.N.N.M.N.M.U.Y.M.N.N.N.N.N.N.N.N.T.N.N.N.N.N.N.N.N.N.N.N.",
"N.N.N.N.N.N.N.N.B.N.B.N.M.N.M.V.n.`.`.q.7.+.O.' ` V o.9.n.N.N.M.N.N.Y.N.N.N.N.N.N.N.M.N.N.N.N.N.N.N.N.N.M.N.N.N.N.N.N.N.N.N.N.N.",
"B.N.N.N.N.N.N.B.N.N.B.M.N.N.N.V.-.( X.+.o.+.1.1.+.S B x.V.M.N.M.N.N.N.N.M.U.N.N.N.N.N.N.N.N.T.N.N.N.N.N.N.N.N.N.N.N.N.T.N.N.N.N.",
"N.N.N.N.N.N.N.N.N.N.N.N.B.M.N.v.V M j j j l B ` +.' B s.R.M.M.M.N.N.N.N.N.N.N.N.N.N.N.N.N.N.N.N.N.N.N.N.N.N.N.N.N.N.T.N.N.N.N.N.",
"N.N.N.N.N.N.N.N.N.N.N.N.N.N.E.-.k w.t.] M g ; ; S +. .n.M.M.N.N.N.N.N.N.N.N.N.N.N.N.N.N.N.N.N.N.N.T.N.N.N.N.N.N.N.N.N.N.N.N.N.N.",
"N.N.N.N.N.N.N.N.N.N.N.N.N.B.n.n ` 7X7X=XK., = ; * ` x.E.T.M.N.N.N.N.N.N.N.N.N.N.N.N.N.N.N.N.N.N.N.N.N.N.N.N.N.N.N.N.N.N.N.N.N.N.",
"N.N.N.T.N.N.N.N.N.B.N.N.N.N.T.i.S w.S.I.e.X * * O g j.U.M.M.N.N.N.N.N.N.U.N.N.N.T.N.N.N.N.N.N.N.N.N.N.N.N.N.N.N.N.N.N.N.N.N.N.N.",
"N.N.N.B.N.N.N.N.N.N.N.N.N.N.N.E.i.- ; b , O = o . G U.U.M.M.N.N.N.N.N.N.M.N.N.N.N.N.N.N.N.N.T.N.N.N.N.N.T.N.N.N.N.N.N.N.N.N.N.N.",
"N.N.N.N.N.N.N.N.N.N.N.N.N.N.N.M.U.a.Y , O o O   A C.c.M.M.N.N.N.N.N.N.N.N.N.T.N.N.N.N.N.N.N.N.N.N.N.N.N.N.N.N.N.N.N.N.N.N.N.N.N.",
"N.N.N.N.N.N.N.N.N.N.N.N.N.N.N.M.Y.U.U.n.u.W <   e./.m.T.N.N.N.N.N.N.N.N.N.N.N.N.N.N.N.N.N.N.N.N.N.N.N.N.N.N.N.N.N.N.N.N.N.N.N.N.",
"B.N.N.N.N.N.N.N.N.N.N.N.N.N.M.N.U.c.Y.U.U.U.Y.i.g.T.N.M.U.N.N.N.N.N.N.N.N.N.N.N.N.N.N.N.N.N.N.N.N.N.N.N.N.N.N.N.N.N.N.N.N.T.N.N."
};
