/* XPM */
static char *_c73c3c0f8fa49d2b079740a94ca0a3fKyUWbxsfJYpvil6L[] = {
/* columns rows colors chars-per-pixel */
"64 64 145 2 ",
"   c #6CBC77",
".  c #6BBC7D",
"X  c #7DD757",
"o  c #7ED957",
"O  c #7CD65A",
"+  c #7DD858",
"@  c #76CC66",
"#  c #78CE65",
"$  c #75CA6C",
"%  c #78CD69",
"&  c #7AD062",
"*  c #6FC275",
"=  c #70C273",
"-  c #77C778",
";  c #81DE4E",
":  c #80DC51",
">  c #83E14B",
",  c #347CBE",
"<  c #397EBE",
"1  c #3A7FC1",
"2  c #3C81BE",
"3  c #5DA799",
"4  c #5DA899",
"5  c #62AF8F",
"6  c #66B585",
"7  c #6ABA82",
"8  c #63B28B",
"9  c #6FBB8B",
"0  c #74BD8C",
"q  c #62AF90",
"w  c #69B490",
"e  c #67B09E",
"r  c #6AB39F",
"t  c #4E97A9",
"y  c #549AAC",
"u  c #458BB5",
"i  c #4184BE",
"p  c #4A81BD",
"a  c #478CBA",
"s  c #4A8EBC",
"d  c #4D92B4",
"f  c #4D90BA",
"g  c #5195B4",
"h  c #5494BF",
"j  c #5E9ABF",
"k  c #67A3BE",
"l  c #6EAAB8",
"z  c #3E82C1",
"x  c #3F80CC",
"c  c #4386C4",
"v  c #4688C4",
"b  c #498AC3",
"n  c #4284C9",
"m  c #4D8CC9",
"M  c #518EC6",
"N  c #518FCE",
"B  c #5F9AC2",
"V  c #5491CB",
"C  c #5A94CB",
"Z  c #5F98CD",
"A  c #5492D3",
"S  c #5E96D0",
"D  c #5E9BD3",
"F  c #5F9CD9",
"G  c #6299CC",
"H  c #699ECE",
"J  c #6A9DD2",
"K  c #639FD8",
"L  c #67A6CD",
"P  c #6CA4CE",
"I  c #67A0D5",
"U  c #69A2D6",
"Y  c #65A1DA",
"T  c #6BA5DB",
"R  c #72A5D4",
"E  c #77AFD5",
"W  c #70A7DA",
"Q  c #76ACDD",
"!  c #7CAEDC",
"~  c #74ADE3",
"^  c #79B1E6",
"/  c #7CB4E9",
"(  c #84AED6",
")  c #80AFD8",
"_  c #85B1D5",
"`  c #84B3DA",
"'  c #92B9DD",
"]  c #82B4E2",
"[  c #87B9E5",
"{  c #89BAE6",
"}  c #87BEF1",
"|  c #89BFF1",
" . c #91C2ED",
".. c #8CC2F4",
"X. c #94C5F2",
"o. c #9FCBF1",
"O. c #96CAFA",
"+. c #9BCDFB",
"@. c #9ED0FF",
"#. c #A2CDF3",
"$. c #A0CFFA",
"%. c #A6D1F5",
"&. c #A2D1FB",
"*. c #ACD6FA",
"=. c #AFD8FC",
"-. c #B0D7F9",
";. c #B4DBFC",
":. c #BADEFD",
">. c #BBE0FF",
",. c #C2E1FB",
"<. c #CDE7FB",
"1. c #CEE8FC",
"2. c #D6E4F2",
"3. c #D8E5F2",
"4. c #DBE8F0",
"5. c #D7EAFA",
"6. c #D6EBFC",
"7. c #D7ECFC",
"8. c #D9EBFA",
"9. c #D9EDFD",
"0. c #DBEEFC",
"q. c #DDEFFD",
"w. c #DEF0FD",
"e. c #DFF0FD",
"r. c #E3ECF5",
"t. c #E4EDF5",
"y. c #E4EDF6",
"u. c #E0EFFC",
"i. c #E3F1FC",
"p. c #E1F1FE",
"a. c #E7F5FF",
"s. c #EEF4FA",
"d. c #EFF6FB",
"f. c #F1F5F9",
"g. c #F2F6FA",
"h. c #F0F6FC",
"j. c #F1F7FC",
"k. c #F7F9FB",
"l. c #F7FAFB",
"z. c #F4F9FC",
"x. c #F9FBFC",
"c. c #FAFCFC",
"v. c #FCFDFD",
"b. c #FEFDFD",
"n. c #FFFFFE",
/* pixels */
"o o o o O : & & : : : + : : & : o o o X o X o X t n b c v c v v c v v v c v n * > o o o X o X o o o o o o o o o o o + + + : : & ",
"o o o o : O : : : & : & & : : + o o X o X o X O y n v b v v v v v v v v v v v 7 o o X o o o o X o o o o o o o o o o : O : & : : ",
": o o o : : & : : : : : : : & : o o o o o o o X t 1 z c z c 1 c z z z z c i 1 . o o o o o X o o o O o o o o o o o o o : : & & : ",
"O o o o & : : : : & & : + & : + o o o $ @ @ @ $ l J H P H H H H J H H H H J U 0 @ $ @ $ O X o o o o o o o o o o o + o + : : + : ",
"o : : & : : : & + + + : : + : + O o O d v a b p 2.n.z.c.c.c.k.k.b.k.k.z.k.k.n.( 2 b a v   o X o o o o o o o o o : : : & + + : & ",
"O O : & & : + + : : + + & : + + o o O d n b c c 2.n.k.n.n.n.n.n.n.n.n.n.n.n.n._ 1 v c n . : X o o o o o o o o o & & : : : + : : ",
": O : : : : : : & : + + : + + + o o O d n v v v 2.n.c.n.n.v.k.n.k.n.v.n.n.c.n.( 1 v v v . : o o o o o o o o o o : : : O & : & : ",
"O : & : : & + + + : + + + + + : o o O d z c c c 2.n.n.n.n.v.n.n.b.n.n.n.n.n.n.( 1 n c z . > o o o o o o o o o o & : O : : : & : ",
"+ o + o o o o o + : + + : + % % $ @ $ k G G G G 2.c.d.d.d.d.d.d.g.d.j.z.g.j.k.' M G Z Z 0 # @ @ @ + o o + o + o : : : : & & : : ",
"o o o o o o o o + + + + + % g A s a h 3.k.z.g.g.>.;.;.>.>.;.:.:.;.;.:.;.;.;.;.<.7.8.5.q._ i u a z . o o o o o o : & & : : : : + ",
"o o o o o o o o + + + + o & f x v c m t.n.n.n.n.,.;.=.;.=.;.=.;.:.*.;.;.;.;.;.1.w.w.q.a.! < v v n 7 o o o o o o + : & + + : & : ",
"o + o o o o o o + + + + o O h z b v M r.n.c.n.k.,.=.;.>.;.;.:.;.;.;.;.;.;.;.;.<.w.w.0.a.` 2 v v 1 6 o + o o + o + + : : + + + : ",
"o o o o o o o o o o o o o & b z < i b r.b.n.n.n.,.;.;.;.-.;.;.;.;.;.;.;.;.-.;.<.p.q.0.a.! < v v n 7 O + + o o + + : & : : : + + ",
"o + o o o o o o o & & # O $ j D B C H r.b.c.k.g.>.;.;.;.:.;.;.;.:.-.:.>.:.:.:.<.0.7.7.p.` v V M A w + & & @ + + + + : : & : % : ",
"o o o o o o o o & d f f u j w.d.d.s.d.i.q.q.p.q.>.;.;.;.:.;.;.:.;.-.p.x.k.k.k.<.;.:.;.;.*.*.*.*.=.E z d g s r : + + : & + : : : ",
"o o o o o o o o @ v v v z C d.c.b.n.k.w.w.w.0.w.:.;.;.;.;.;.;.;.;.-.a.n.n.n.n.<.=.;.;.;.:.;.;.;.:.^ z z N n r : + + : & : : % : ",
"o o o o o o + o % s v v c C f.v.v.v.v.u.q.u.q.q.:.;.;.;.;.;.;.;.;.;.r.b.k.n.n.1.=.>.;.;.;.;.;.;.>.E z z v x 8 o o o o o o o o o ",
"o o o o o o o o # v c v c V s.n.v.v.v.u.q.q.u.q.:.;.;.;.;.;.;.;.;.*.d.b.n.v.n.<.=.;.;.;.;.;.;.;.>.~ z m v x 8 o o o o o o o o o ",
"o o o o o o o o % s v v c C g.n.v.v.x.q.8.8.q.9.:.;.;.:.:.;.:.;.;.;.a.n.k.b.n.<.=.;.;.;.;.;.;.;.>.~ z z b z 7 o o o o o o o o o ",
"o o o o o o o o % b n v c M s.n.n.v.v.,.:.:.:.:.a.k.k.g.k.t.5.7.7.7.q.i.w.w.i.,.;.;.;.;.;.;.;.=.>.^ i M b x 8 o o o o o o o o o ",
"o o o o o o o o % s v v < C f.v.v.v.x.:.-.-.:.-.d.n.n.n.n.i.w.w.w.w.w.w.w.w.0.,.=.;.;.;.;.;.;.;.>.E z v v x 8 o + + o o o o o o ",
"o o o o o o o o % s v v c C f.n.v.n.x.>.-.:.-.:.d.b.k.n.b.p.q.q.w.w.w.w.w.7.w.,.;.;.;.;.;.;.;.;.>.~ z v m z 8 o + + o o o o o o ",
"o o o o o o o o # b c v 2 C g.v.v.n.x.:.=.;.;.:.g.n.b.n.b.i.q.p.w.q.w.0.w.w.w.,.=.;.;.;.;.;.;.;.>.E z b v x 8 o + o o o o o o o ",
"o o o o o o o o % b v b c G s.n.v.x.z.:.;.:.-.:.g.b.k.k.v.i.q.p.0.0.q.0.w.7.w.,.=.;.;.;.;.=.;.;.>.~ z b b v q o & + + o o o o o ",
"o o o @ g g g d k q.t.t.t.r.:.:.:.:.,.s.k.z.z.z.,.:.>.>.>.>.;.-.;.:.;.:.:.;.:.%.O.+.+.O.&.>.;.;.;.*.%.%.%.-.! d g g f w o o o o ",
"o o o @ v z v x Z c.n.n.n.k.:.;.-.;.;.z.v.n.v.v.,.-.;.-.-.;.;.;.;.;.;.;.;.;.;.+.O.O.O.O.&.>.;.=.;.;.;.>.>.>.] z v v x 4 o o o o ",
"o o o # b v v c G k.n.n.v.k.:.;.;.;.:.z.v.v.n.c.,.-.;.;.;.;.;.;.;.;.;.;.;.;.;.&.O.O.O.O.*.;.=.>.;.;.;.;.=.>.] z v v x 4 o o o o ",
"o o o # b v v z Z k.v.v.n.g.:.;.;.;.;.z.v.v.n.c.,.;.;.;.;.;.;.;.;.;.;.;.;.;.;.&.O.O.O.O.&.>.;.;.;.;.;.;.;.>.] z v v x 4 o o o o ",
"o o o & b c v z Z k.n.v.v.k.:.-.;.;.;.g.n.x.c.c.,.;.;.;.;.;.>.;.:.;.:.;.;.;.;.+.O.O.O.O.%.>.;.;.;.>.=.;.;.>./ c v v x 4 o o o o ",
"o o o @ b v v c G k.v.n.n.g.;.;.;.;.;.q.i.i.p.w.>.;.;.;.;.;.;.;.-.;.;.;.;.;.;.$.O.O.O.O.*.;.=.;.;.;.;.;.=.>.` z v v c 3 o o o o ",
"o o o @ b c v z Z k.n.n.n.j.:.;.;.;.>.9.u.q.w.w.:.;.;.;.;.;.>.;.:.;.;.;.;.;.;.&.O.O.O...&.>.=.>.;.;.;.;.;.>.] z v v n 3 o o o o ",
"o o o @ b c v z Z k.n.c.v.k.:.;.;.;.;.8.q.p.w.8.:.-.>.;.;.;.;.;.;.:.;.;.;.;.;.$.O.+.O.O.*.;.;.;.;.;.;.;.;.>.] z v v z 8 o o o o ",
"o o ; % b v v z Z k.n.k.n.z.:.-.;.;.;.7.p.q.t.q.>.;.;.;.=.>.;.;.;.;.;.;.;.;.;.@.O.O.O.O.&.:.:.;.:.:.-.:.;.:.] z v v n 3 o o o o ",
"o o o % b v v z Z k.n.v.n.z.:.;.;.;.:.7.6.0.0.7.:.;.;.;.;.;.;.;.;.;.;.;.;.;.;.@.O.O.O.O.&.-.*.-.*.-.=.=.-.;.] c v v n 3 o o o o ",
"o o o % b c v c Z k.n.n.n.z.0.6.9.6.5.&.&.$.$.$.-.;.;.;.;.;.;.>.;.;.:.;.;.;.;.&.O.O.O.+.W m V V V V V V M V m c c c n 3 o o o o ",
"o X o @ b c v z G k.n.n.n.k.p.q.p.q.7.+.O.O.O.O.=.;.;.;.;.;.;.;.;.;.;.;.;.;.;.@.O.O.O.+.Y z v c c z c c c c c n v b n 3 o X o o ",
"X o o @ b c v z Z c.n.n.n.k.q.q.q.q.0.+.O.O.O.O.=.;.;.;.;.;.;.;.;.;.;.;.;.;.;.&.O.O.O.+.K c v v v v v v v v v v v v n 3 ; o o o ",
"o X o @ v c v z Z k.v.n.n.k.t.w.q.w.7.&.O.O.O.O.-.;.;.;.;.;.;.;.;.;.;.;.;.;.;.+.O.O.O.+.K c v v c v v v v n c v v v n 3 : X X o ",
"o o o & b v v z G c.n.v.v.k.r.q.q.q.7.$.O.O.O.O.-.;.;.;.;.=.=.=.;.;.;.;.;.;.;.%.O.O.O.+.Y c b v v v v v v v v c c v c 3 o o o o ",
"o o o @ b v v z Z k.n.k.n.k.:.:.:.:.:.;.*.;.*.=.+.O.+.+.+.+.@.+.+.+.+.+.O.+.O.*.;.*.=.*.%.o.#.+.#.X.} | } | T c v v c 4 o o X o ",
"o o o # s c v z Z k.n.n.n.z.;.;.;.;.;.;.;.;.;.;.+.X.O.O.O.O.O.O.X.O.O.O.O.O.O.*.:.-.:.;.:.:.:.:.>.&.O.O.O.+.~ c c v n 3 o X X o ",
"o o o @ b c v z G k.n.v.n.g.:.;.;.;.;.;.;.;.;.;.+.O.O.O.+.O.+.O.O.+.O.O.O.O.O.&.*.:.;.;.;.;.*.;.:.&.O.O.O.+.W z v v n 3 ; X o o ",
"o o o @ b c v z G k.n.n.n.z.;.;.;.;.;.;.;.;.;.;.+.O.O.O.O.O.+.O.O.O.O.O.O.O.O.*.;.:.;.;.;.;.;.;.;.&.O.O.O.+.~ c v v n 3 o X o o ",
"X o o @ b b b v G k.c.c.v.g.;.;.;.;.;.;.;.;.;.-.@.O.O.O.O.O.O.O.+.O.O.O.O.O.O.*.;.-.;.-.;.;.;.;.:.&.O.O.O.+.Q i b a n 3 : o X o ",
"o o o o $ # @ @ - P H P H R =.;.;.;.=.I C Z Z S +.*.*.*.*.*.*.*.*.*.*.*.*.*.;.^ V D Z V  .>.-.;.:./ V V V A e % @ $ $ & o o o o ",
"o o o o o o o o & i z 2 1 v -.;.;.;.*.m 2 c z z o.>.;.;.;.;.>.;.-.:.;.;.;.;.>.U , c c < [ >.;.;.:.W < v c 1 5 ; o o o o o o o o ",
"o o o o o o o o % b v b c V -.;.;.;.*.V c v v v o.;.=.;.;.;.;.;.:.;.;.;.;.;.>.T z v v z { >.;.-.>.Q z v v n 8 o o o o o o o X o ",
"o o o o o o o o @ b c c c V -.;.;.:.*.V c v c v o.>.>.;.;.;.=.>.;.;.;.;.;.;.>.U z b v c { >.-.;.>.Q z v v n q : X o o o o o o o ",
"o o o o o o + o & s v v c M *.:.;.;.-.V c v c v o.:.-.;.;.;.;.;.-.;.:.-.;.;.:.U 1 v v c { >.-.;.>.~ z v v n w o o o o o o o o o ",
"o o o o o o + o @ b c v c N =.-.;.;.-.M c v v c o.:.;.;.=.>.;.;.:.;.;.:.;.;.>.T c v v < ^ &.+.+.&.W c v v n 5 o o o o o o o o + ",
"o o o o o o o : @ s c v c V *.:.;.;.*.V c v c v o.:.;.;.>.=.;.;.;.:.:.-.;.;.>.T < v v c ^ +.O.O.O.T 2 v v z 8 > o o o o o + o + ",
"o o o o o o o o @ b v v c N *.;.;.;.*.V c v v v o.:.;.;.;.;.;.;.;.;.;.;.;.;.:.U c v v c ~ +.O.O.+.T c b b x 8 o o o o o o o o o ",
"o o o o o o o o @ b n v z V *.;.=.;.*.V c v c v o.>.;.;.;.;.;.>.;.;.:.;.;.;.:.T z v v c ~ @.O.O.+.T 2 b v z 8 o o o o o o o o o ",
"o o o o o + o o % v v v c V =.;.:.:.*.V z c c c o.;.;.;.;.;.;.;.;.;.;.;.;.;.:.T < v c < ~ @.O.O.@.T 2 v v n 8 o + o o o o o o o ",
"o o o o o o o o o * = = = 7 L U I U T ^ / / / / *.;.;.;.;.:.;.;.;.;.;.;.;.;.;...^ / ^ / T D D D F e = $ * = & o + + o o o o o o ",
"o o o o o + o o o : : : > O u z z z c ..@.+.+.O.*.;.;.;.;.;.;.;.;.;.;.;.;.;.;.&.+.+.+.&.Y < c c x 6 o o o o o o o o o o o o o o ",
": & + : o o o o o o o O o & f v v v m ..O.O.O.O.*.;.>.=.;.;.;.;.;.;.;.;.;.>.;.@.O.O.O.O.Y c v v x w : + + + + + o + o o o o o o ",
": : + + o o o o o X O o o & f c b c v ..O.O.O.O.*.;.=.=.=.;.;.=.=.;.;.=.;.=.;.+.O.O.O.O.K z v v N 9 : + + + + : o o o o o o o o ",
"& : : O o o o o o o o o o # b x n c v ..+.+.+.+.;.>.>.>.>.>.>.>.>.>.>.>.>.>.>.&.+.+.+.+.Y 1 v c x 8 : + + : & : o o o o o o o o ",
"& : o o o o o o o o o X o O *   . 7 7 L Y Y K Y T W W W W W W W W W T W W W W U Y Y Y K r   7 7 7 @ + + + + : : o o o o : o + o ",
": : : : o o o o o o o o + o o o o > o d z i z 2 2 z 2 z z 2 z z 2 z z z 2 z 2 z 2 2 i c @ o o o o o o o : : & & : & : O + : + + ",
": & : & o o o o o o o o o o o o + o O d v v v c v v v v v v v v v v c v b v v v c b p v * o o + o o o o & : : : : : O : + + + : ",
": + : + o o o o o o o o o o o o + o & g n v v v c b v v b v v c v v b b v c v v v c a z . o + o o o o o & : : : & : : O : & + : ",
"& + : + o o o o o o o o o o o o o o O d c c v v c c c b c v c c b c c c c b c c v c c z * o o o o o o o : : & : & : : & : : : & "
};
